<?xml version="1.0" standalone="no"?>
<!DOCTYPE svg PUBLIC "-//W3C//DTD SVG 1.1//EN" "http://www.w3.org/Graphics/SVG/1.1/DTD/svg11.dtd" >
<svg>
<metadata>
Created by FontForge 20120731 at Sat Nov  9 19:26:08 2019
 By www
Copyright (c) 2011 by Ryoichi Tsunekawa. All rights reserved.
</metadata>
<defs>
<font id="ControllerExtW01-Five" horiz-adv-x="918" >
  <font-face 
    font-family="ControllerExtW01-Five"
    font-weight="500"
    font-stretch="normal"
    units-per-em="1000"
    panose-1="4 5 8 8 2 11 2 2 3 2"
    ascent="800"
    descent="-200"
    x-height="520"
    cap-height="700"
    bbox="-86 -213 1996 959"
    underline-thickness="50"
    underline-position="-75"
    unicode-range="U+0020-2122"
  />
<missing-glyph horiz-adv-x="1000" 
d="M100 700h800v-700h-800v700zM208 108h584v484h-584v-484z" />
    <glyph glyph-name=".notdef" horiz-adv-x="1000" 
d="M100 700h800v-700h-800v700zM208 108h584v484h-584v-484z" />
    <glyph glyph-name=".null" horiz-adv-x="0" 
 />
    <glyph glyph-name="nonmarkingreturn" horiz-adv-x="333" 
 />
    <glyph glyph-name="space" unicode=" " horiz-adv-x="400" 
 />
    <glyph glyph-name="exclam" unicode="!" horiz-adv-x="312" 
d="M54 125q0 40 40 40h124q40 0 40 -40v-85q0 -40 -40 -40h-124q-40 0 -40 40v85zM107 230q-39 0 -39 39v392q0 39 39 39h98q39 0 39 -39v-392q0 -39 -39 -39h-98z" />
    <glyph glyph-name="quotedbl" unicode="&#x22;" horiz-adv-x="510" 
d="M54 666q0 34 34 34h93q35 0 35 -34v-274q0 -34 -34 -34h-93q-35 0 -35 34v274zM294 666q0 34 34 34h93q35 0 35 -34v-274q0 -34 -34 -34h-93q-35 0 -35 34v274z" />
    <glyph glyph-name="numbersign" unicode="#" horiz-adv-x="970" 
d="M28 245q4 30 35 30h101l21 150h-101q-32 0 -27 30l12 83q4 31 35 31h101l14 100q2 16 12 23.5t24 7.5h87q30 0 26 -31l-14 -100h323l14 100q4 31 36 31h87q30 0 26 -31l-14 -100h102q30 0 26 -31l-12 -83q-5 -30 -34 -30h-102l-21 -150h102q30 0 26 -30l-12 -83
q-4 -31 -34 -31h-102l-14 -100q-2 -16 -12 -23.5t-24 -7.5h-87q-30 0 -26 31l14 100h-323l-14 -100q-4 -31 -36 -31h-87q-30 0 -26 31l14 100h-101q-31 0 -27 31zM313 275h323l21 150h-323z" />
    <glyph glyph-name="dollar" unicode="$" horiz-adv-x="1103" 
d="M482 20h-392q-40 0 -40 40v75q0 40 40 40h392v106h-237q-48 0 -87 9t-66.5 29.5t-42 53t-14.5 80.5v55q0 48 14.5 80.5t42 53t66.5 29.5t87 9h237v71q0 39 39 39h57q39 0 39 -39v-71h388q40 0 40 -40v-75q0 -40 -40 -40h-388v-106h243q48 0 87 -9t66.5 -29.5t42 -53
t14.5 -80.5v-55q0 -48 -14.5 -80.5t-42 -53t-66.5 -29.5t-87 -9h-243v-71q0 -39 -39 -39h-57q-39 0 -39 39v71zM617 281v-106h218q53 0 53 49v9q0 48 -53 48h-218zM211 467q0 -48 53 -48h218v106h-218q-53 0 -53 -49v-9z" />
    <glyph glyph-name="percent" unicode="%" horiz-adv-x="1319" 
d="M165 252q-62 0 -95 33t-33 95v192q0 62 33 95t95 33h227q62 0 95 -33t33 -95v-192q0 -62 -33 -95t-95 -33h-227zM927 0q-62 0 -95 33t-33 95v192q0 62 33 95t95 33h227q62 0 95 -33t33 -95v-192q0 -62 -33 -95t-95 -33h-227zM973 330q-39 0 -39 -39v-134q0 -39 39 -39
h135q39 0 39 39v134q0 18 -10 28.5t-29 10.5h-135zM211 582q-39 0 -39 -39v-134q0 -18 10 -28.5t29 -10.5h135q39 0 39 39v134q0 18 -9.5 28.5t-29.5 10.5h-135zM510 28q-11 -16 -23 -22t-34 -6h-67q-18 0 -22 13t5 26l440 633q11 16 23 22t34 6h66q19 0 23 -13t-5 -26z" />
    <glyph glyph-name="ampersand" unicode="&#x26;" horiz-adv-x="1156" 
d="M1098 427q40 0 40 -40v-74q0 -40 -40 -40h-44q24 -36 24 -96v-15q0 -90 -51 -126t-142 -36h-647q-97 0 -151 38.5t-54 133.5v25q0 69 30 107.5t84 53.5q-35 19 -54.5 54t-19.5 91v25q0 95 54 133.5t151 38.5h640q40 0 40 -40v-75q0 -40 -40 -40h-610q-59 0 -59 -54v-10
q0 -54 59 -54h790zM268 273q-59 0 -59 -54v-10q0 -54 59 -54h579q55 0 55 50v18q0 50 -55 50h-579z" />
    <glyph glyph-name="quotesingle" unicode="'" horiz-adv-x="270" 
d="M54 666q0 34 34 34h93q35 0 35 -34v-274q0 -34 -34 -34h-93q-35 0 -35 34v274z" />
    <glyph glyph-name="parenleft" unicode="(" horiz-adv-x="406" 
d="M219 52q0 -35 21.5 -56t56.5 -21h40q33 0 33 -33v-63q0 -32 -33 -32h-97q-91 0 -139.5 49t-48.5 139v515q0 90 48.5 139t139.5 49h97q33 0 33 -32v-63q0 -33 -33 -33h-40q-35 0 -56.5 -21t-21.5 -56v-481z" />
    <glyph glyph-name="parenright" unicode=")" horiz-adv-x="406" 
d="M187 533q0 35 -21.5 56t-56.5 21h-40q-33 0 -33 33v63q0 32 33 32h97q91 0 139.5 -49t48.5 -139v-515q0 -90 -48.5 -139t-139.5 -49h-97q-33 0 -33 32v63q0 33 33 33h40q35 0 56.5 21t21.5 56v481z" />
    <glyph glyph-name="asterisk" unicode="*" horiz-adv-x="614" 
d="M356 480l163 93q15 9 27 4t17 -22l36 -110q5 -17 -2 -27.5t-24 -12.5l-185 -20l138 -124q14 -12 12.5 -24.5t-15.5 -23.5l-93 -68q-14 -10 -26 -7t-20 20l-77 171l-77 -171q-8 -17 -20 -20t-26 7l-93 68q-14 11 -15.5 23.5t12.5 24.5l137 124l-184 20q-37 5 -26 40
l36 110q5 17 17 22t27 -4l162 -94l-38 184q-4 17 4.5 27t25.5 10h115q17 0 26 -10t5 -27z" />
    <glyph glyph-name="plus" unicode="+" horiz-adv-x="736" 
d="M331 25q-40 0 -40 40v208h-218q-40 0 -40 40v74q0 40 40 40h218v208q0 40 40 40h74q40 0 40 -40v-208h218q40 0 40 -40v-74q0 -40 -40 -40h-218v-208q0 -40 -40 -40h-74z" />
    <glyph glyph-name="comma" unicode="," horiz-adv-x="312" 
d="M172 -152q-14 -26 -44 -26h-53q-14 0 -19 10.5t2 22.5l77 145h-41q-40 0 -40 40v85q0 40 40 40h124q40 0 40 -40v-90q0 -17 -3.5 -32.5t-13.5 -32.5z" />
    <glyph glyph-name="hyphen" unicode="-" horiz-adv-x="446" 
d="M33 359q0 36 36 36h308q36 0 36 -36v-83q0 -36 -36 -36h-308q-36 0 -36 36v83z" />
    <glyph glyph-name="period" unicode="." horiz-adv-x="312" 
d="M94 0q-40 0 -40 40v85q0 40 40 40h124q40 0 40 -40v-85q0 -40 -40 -40h-124v0z" />
    <glyph glyph-name="slash" unicode="/" horiz-adv-x="727" 
d="M169 -90q-12 -17 -24.5 -23.5t-35.5 -6.5h-80q-20 0 -24 13.5t5 27.5l548 787q12 17 24.5 23.5t35.5 6.5h80q20 0 24 -13.5t-5 -27.5z" />
    <glyph glyph-name="zero" unicode="0" horiz-adv-x="1159" 
d="M252 0q-97 0 -148.5 51.5t-51.5 148.5v300q0 97 51.5 148.5t148.5 51.5h655q97 0 148.5 -51.5t51.5 -148.5v-300q0 -97 -51.5 -148.5t-148.5 -51.5h-655zM301 545q-35 0 -54 -19t-19 -54v-244q0 -35 19 -54t54 -19h557q35 0 54 19.5t19 53.5v244q0 34 -19 53.5t-54 19.5
h-557z" />
    <glyph glyph-name="one" unicode="1" horiz-adv-x="446" 
d="M34 660q0 40 40 40h256q39 0 39 -39v-622q0 -39 -39 -39h-98q-39 0 -39 39v506h-119q-40 0 -40 40v75z" />
    <glyph glyph-name="two" unicode="2" horiz-adv-x="1109" 
d="M38 255q0 48 14.5 80.5t42 53t66.5 29.5t87 9h590q59 0 59 54v10q0 54 -59 54h-735q-40 0 -40 40v75q0 40 40 40h760q48 0 87 -9t66.5 -29.5t42 -53t14.5 -80.5v-83q0 -48 -14.5 -80.5t-42 -53t-66.5 -29.5t-87 -9h-590q-59 0 -59 -54v-64h814q40 0 40 -40v-75
q0 -40 -40 -40h-950q-40 0 -40 40v215z" />
    <glyph glyph-name="three" unicode="3" horiz-adv-x="1119" 
d="M851 155q59 0 59 54v10q0 54 -59 54h-675q-40 0 -40 40v74q0 40 40 40h665q28 0 43.5 13.5t15.5 40.5v10q0 54 -59 54h-765q-40 0 -40 40v75q0 40 40 40h795q97 0 151 -38.5t54 -133.5v-25q0 -60 -22.5 -96.5t-64.5 -54.5q46 -17 71.5 -54.5t25.5 -100.5v-25
q0 -95 -54 -133.5t-151 -38.5h-805q-40 0 -40 40v75q0 40 40 40h775v0z" />
    <glyph glyph-name="four" unicode="4" horiz-adv-x="1145" 
d="M296 286h554v375q0 39 39 39h98q39 0 39 -39v-375h58q40 0 40 -40v-75q0 -40 -40 -40h-58v-92q0 -39 -39 -39h-98q-39 0 -39 39v92h-791q-40 0 -40 40v52q0 19 8.5 32t20.5 24l445 391q20 17 35 23.5t43 6.5h135q10 0 15.5 -4.5t7 -11.5t-1 -14t-8.5 -13z" />
    <glyph glyph-name="five" unicode="5" horiz-adv-x="1104" 
d="M1031 585q0 -40 -40 -40h-764v-118h634q48 0 87 -9t66.5 -29.5t42 -53t14.5 -80.5v-83q0 -48 -14.5 -80.5t-42 -53t-66.5 -29.5t-87 -9h-795q-40 0 -40 40v75q0 40 40 40h770q59 0 59 54v10q0 54 -59 54h-746q-39 0 -39 39v348q0 40 40 40h900q40 0 40 -40v-75z" />
    <glyph glyph-name="six" unicode="6" horiz-adv-x="1134" 
d="M227 427h664q48 0 87 -9t66.5 -29.5t42 -53t14.5 -80.5v-83q0 -48 -14.5 -80.5t-42 -53t-66.5 -29.5t-87 -9h-640q-97 0 -148.5 51.5t-51.5 148.5v267q0 112 59 172.5t172 60.5h739q40 0 40 -40v-75q0 -40 -40 -40h-700q-94 0 -94 -93v-25zM866 155q59 0 59 54v10
q0 54 -59 54h-639v-45q0 -35 19 -54t54 -19h566z" />
    <glyph glyph-name="seven" unicode="7" horiz-adv-x="1103" 
d="M791 545h-732q-40 0 -40 40v75q0 40 40 40h985q40 0 40 -40v-50q0 -19 -8.5 -32t-20.5 -24l-597 -524q-18 -16 -33.5 -23t-40.5 -7h-152q-10 0 -15.5 5t-7 12.5t1 16t9.5 14.5z" />
    <glyph glyph-name="eight" unicode="8" horiz-adv-x="1131" 
d="M238 0q-97 0 -151 38.5t-54 133.5v25q0 63 25 100.5t71 54.5q-42 18 -64 54.5t-22 96.5v25q0 95 54 133.5t151 38.5h635q97 0 151 -38.5t54 -133.5v-25q0 -60 -22.5 -96.5t-64.5 -54.5q46 -17 71.5 -54.5t25.5 -100.5v-25q0 -95 -54 -133.5t-151 -38.5h-655zM863 155
q59 0 59 54v10q0 54 -59 54h-595q-59 0 -59 -54v-10q0 -54 59 -54h595zM853 427q59 0 59 54v10q0 54 -59 54h-575q-59 0 -59 -54v-10q0 -54 59 -54h575z" />
    <glyph glyph-name="nine" unicode="9" horiz-adv-x="1134" 
d="M813 155q94 0 94 93v25h-664q-48 0 -87 9t-66.5 29.5t-42 53t-14.5 80.5v83q0 48 14.5 80.5t42 53t66.5 29.5t87 9h640q97 0 148.5 -51.5t51.5 -148.5v-267q0 -112 -59 -172.5t-172 -60.5h-739q-40 0 -40 40v75q0 40 40 40h700zM268 545q-59 0 -59 -54v-10q0 -54 59 -54
h639v45q0 35 -19 54t-54 19h-566z" />
    <glyph glyph-name="colon" unicode=":" horiz-adv-x="312" 
d="M94 315q-40 0 -40 40v85q0 40 40 40h124q40 0 40 -40v-85q0 -40 -40 -40h-124zM94 0q-40 0 -40 40v85q0 40 40 40h124q40 0 40 -40v-85q0 -40 -40 -40h-124z" />
    <glyph glyph-name="semicolon" unicode=";" horiz-adv-x="312" 
d="M172 -152q-14 -26 -44 -26h-53q-14 0 -19 10.5t2 22.5l77 145h-41q-40 0 -40 40v85q0 40 40 40h124q40 0 40 -40v-90q0 -17 -3.5 -32.5t-13.5 -32.5zM94 315q-40 0 -40 40v85q0 40 40 40h124q40 0 40 -40v-85q0 -40 -40 -40h-124z" />
    <glyph glyph-name="less" unicode="&#x3c;" horiz-adv-x="736" 
d="M630 663q17 7 27.5 0.5t10.5 -23.5v-99q0 -17 -6.5 -28t-23.5 -18l-386 -145l386 -145q17 -7 23.5 -18t6.5 -28v-99q0 -17 -10.5 -23.5t-27.5 0.5l-532 209q-17 7 -23.5 18t-6.5 28v116q0 17 6.5 28t23.5 18z" />
    <glyph glyph-name="equal" unicode="=" horiz-adv-x="736" 
d="M83 417q-40 0 -40 40v71q0 40 40 40h570q40 0 40 -40v-71q0 -40 -40 -40h-570zM83 132q-40 0 -40 40v71q0 40 40 40h570q40 0 40 -40v-71q0 -40 -40 -40h-570z" />
    <glyph glyph-name="greater" unicode="&#x3e;" horiz-adv-x="736" 
d="M638 454q17 -7 23.5 -18t6.5 -28v-116q0 -17 -6.5 -28t-23.5 -18l-532 -209q-17 -7 -27.5 -0.5t-10.5 23.5v99q0 17 6.5 28t23.5 18l386 145l-386 145q-17 7 -23.5 18t-6.5 28v99q0 17 10.5 23.5t27.5 -0.5z" />
    <glyph glyph-name="question" unicode="?" horiz-adv-x="887" 
d="M688 497q0 25 -14 36.5t-39 11.5h-576q-40 0 -40 40v75q0 40 40 40h595q48 0 87 -9t66 -29.5t42 -53t15 -80.5v-62q0 -48 -15 -81t-42 -53t-66 -29t-87 -9h-261q-28 0 -28 -23v-1q0 -40 -40 -40h-72q-40 0 -40 40v56q0 116 116 116h306q25 0 39 11.5t14 36.5v7zM227 0
q-40 0 -40 40v85q0 40 40 40h124q40 0 40 -40v-85q0 -40 -40 -40h-124z" />
    <glyph glyph-name="at" unicode="@" horiz-adv-x="1144" 
d="M945 437v38q0 29 -16 45t-45 16h-547q-133 0 -133 -133v-249q0 -133 133 -133h675q35 0 35 -34v-66q0 -34 -35 -34h-710q-122 0 -186 65t-64 186v281q0 121 64 186t186 65h620q39 0 71.5 -12.5t55.5 -35.5t35.5 -55t12.5 -72v-226q0 -72 -38.5 -110.5t-110.5 -38.5h-506
q-72 0 -110.5 38.5t-38.5 110.5v19q0 72 38.5 110.5t110.5 38.5h503zM909 254q36 0 36 29v40h-464q-36 0 -36 -29v-11q0 -29 36 -29h428z" />
    <glyph glyph-name="A" unicode="A" horiz-adv-x="1219" 
d="M57 491q0 100 53.5 154.5t154.5 54.5h689q101 0 154.5 -54.5t53.5 -154.5v-449q0 -42 -42 -42h-102q-42 0 -42 42v155h-733v-155q0 -42 -42 -42h-102q-42 0 -42 42v449zM976 462q0 74 -74 74h-585q-74 0 -74 -74v-101h733v101z" />
    <glyph glyph-name="B" unicode="B" horiz-adv-x="1190" 
d="M934 700q50 0 89.5 -9.5t67 -30.5t42 -55.5t14.5 -83.5v-9q0 -65 -24.5 -103.5t-69.5 -56.5q51 -17 77.5 -56.5t26.5 -107.5v-9q0 -50 -14.5 -84t-42 -55t-67 -30.5t-89.5 -9.5h-840q-42 0 -42 42v616q0 42 42 42h830zM248 273v-109h665q58 0 58 50v9q0 50 -58 50h-665z
M248 427h655q58 0 58 50v9q0 50 -58 50h-655v-109z" />
    <glyph glyph-name="C" unicode="C" horiz-adv-x="1148" 
d="M260 0q-101 0 -154.5 54.5t-53.5 154.5v282q0 100 53.5 154.5t154.5 54.5h810q42 0 42 -42v-80q0 -42 -42 -42h-758q-74 0 -74 -74v-224q0 -74 74 -74h758q42 0 42 -42v-80q0 -42 -42 -42h-810v0z" />
    <glyph glyph-name="D" unicode="D" horiz-adv-x="1217" 
d="M62 658q0 42 42 42h823q118 0 179 -62.5t61 -178.5v-218q0 -116 -61 -178.5t-179 -62.5h-823q-42 0 -42 42v616zM981 433q0 103 -104 103h-629v-372h629q104 0 104 103v166z" />
    <glyph glyph-name="E" unicode="E" horiz-adv-x="1169" 
d="M238 238q0 -74 74 -74h778q42 0 42 -42v-80q0 -42 -42 -42h-830q-101 0 -154.5 54.5t-53.5 154.5v282q0 100 53.5 154.5t154.5 54.5h830q42 0 42 -42v-80q0 -42 -42 -42h-778q-74 0 -74 -74v-35h752q42 0 42 -42v-70q0 -42 -42 -42h-752v-35z" />
    <glyph glyph-name="F" unicode="F" horiz-adv-x="1141" 
d="M243 42q0 -42 -42 -42h-102q-42 0 -42 42v449q0 100 53.5 154.5t154.5 54.5h815q42 0 42 -42v-80q0 -42 -42 -42h-763q-74 0 -74 -74v-45h737q42 0 42 -42v-80q0 -42 -42 -42h-737v-211z" />
    <glyph glyph-name="G" unicode="G" horiz-adv-x="1206" 
d="M1167 179q0 -50 -15 -84t-43.5 -55t-69 -30.5t-90.5 -9.5h-689q-101 0 -154.5 54.5t-53.5 154.5v282q0 100 53.5 154.5t154.5 54.5h825q42 0 42 -42v-80q0 -42 -42 -42h-773q-74 0 -74 -74v-224q0 -74 74 -74h611q58 0 58 50v59h-252q-42 0 -42 42v70q0 42 42 42h396
q42 0 42 -42v-206z" />
    <glyph glyph-name="H" unicode="H" horiz-adv-x="1224" 
d="M62 658q0 42 42 42h102q42 0 42 -42v-226h728v226q0 42 42 42h102q42 0 42 -42v-616q0 -42 -42 -42h-102q-42 0 -42 42v226h-728v-226q0 -42 -42 -42h-102q-42 0 -42 42v616v0z" />
    <glyph glyph-name="I" unicode="I" horiz-adv-x="310" 
d="M248 42q0 -42 -42 -42h-102q-42 0 -42 42v616q0 42 42 42h102q42 0 42 -42v-616z" />
    <glyph glyph-name="J" unicode="J" horiz-adv-x="1116" 
d="M205 238q0 -74 74 -74h520q74 0 74 74v420q0 42 42 42h102q42 0 42 -42v-449q0 -100 -53.5 -154.5t-154.5 -54.5h-624q-101 0 -154.5 54.5t-53.5 154.5v109q0 42 42 42h102q42 0 42 -42v-80v0z" />
    <glyph glyph-name="K" unicode="K" horiz-adv-x="1223" 
d="M248 432h395l305 243q19 15 33.5 20t41.5 5h159q9 0 14.5 -5.5t7.5 -13t-0.5 -15.5t-10.5 -14l-382 -300l388 -304q8 -6 10.5 -14.5t0.5 -16t-7.5 -12.5t-14.5 -5h-165q-27 0 -41.5 5t-33.5 20l-305 243h-395v-226q0 -42 -42 -42h-102q-42 0 -42 42v616q0 42 42 42h102
q42 0 42 -42v-226z" />
    <glyph glyph-name="L" unicode="L" horiz-adv-x="1116" 
d="M243 238q0 -74 74 -74h738q42 0 42 -42v-80q0 -42 -42 -42h-790q-101 0 -154.5 54.5t-53.5 154.5v449q0 42 42 42h102q42 0 42 -42v-420v0z" />
    <glyph glyph-name="M" unicode="M" horiz-adv-x="1594" 
d="M704 462q0 74 -74 74h-313q-74 0 -74 -74v-420q0 -42 -42 -42h-102q-42 0 -42 42v449q0 100 53.5 154.5t154.5 54.5h354q63 0 107.5 -22t70.5 -64q25 42 70 64t108 22h354q101 0 154.5 -54.5t53.5 -154.5v-449q0 -42 -42 -42h-102q-42 0 -42 42v420q0 74 -74 74h-313
q-74 0 -74 -74v-420q0 -42 -42 -42h-102q-42 0 -42 42v420v0z" />
    <glyph glyph-name="N" unicode="N" horiz-adv-x="1214" 
d="M57 491q0 100 53.5 154.5t154.5 54.5h684q101 0 154.5 -54.5t53.5 -154.5v-449q0 -42 -42 -42h-102q-42 0 -42 42v420q0 74 -74 74h-580q-74 0 -74 -74v-420q0 -42 -42 -42h-102q-42 0 -42 42v449v0z" />
    <glyph glyph-name="O" unicode="O" horiz-adv-x="1234" 
d="M260 0q-101 0 -154.5 54.5t-53.5 154.5v282q0 100 53.5 154.5t154.5 54.5h714q101 0 154.5 -54.5t53.5 -154.5v-282q0 -100 -53.5 -154.5t-154.5 -54.5h-714zM922 164q74 0 74 74v224q0 74 -74 74h-610q-74 0 -74 -74v-224q0 -74 74 -74h610z" />
    <glyph glyph-name="P" unicode="P" horiz-adv-x="1155" 
d="M62 658q0 42 42 42h820q101 0 154.5 -54.5t53.5 -154.5v-64q0 -100 -53.5 -154.5t-154.5 -54.5h-676v-176q0 -42 -42 -42h-102q-42 0 -42 42v616zM946 470q0 66 -66 66h-632v-154h632q66 0 66 66v22z" />
    <glyph glyph-name="Q" unicode="Q" horiz-adv-x="1234" 
d="M260 0q-101 0 -154.5 54.5t-53.5 154.5v282q0 100 53.5 154.5t154.5 54.5h714q101 0 154.5 -54.5t53.5 -154.5v-282q0 -100 -53.5 -154.5t-154.5 -54.5h-264v-78q0 -42 -42 -42h-102q-42 0 -42 42v78h-264zM922 164q74 0 74 74v224q0 74 -74 74h-610q-74 0 -74 -74v-224
q0 -74 74 -74h610z" />
    <glyph glyph-name="R" unicode="R" horiz-adv-x="1179" 
d="M248 42q0 -42 -42 -42h-102q-42 0 -42 42v616q0 42 42 42h820q50 0 89.5 -9.5t67 -30.5t42 -55.5t14.5 -83.5v-48q0 -69 -26.5 -108t-77.5 -56q51 -17 77.5 -56.5t26.5 -107.5v-103q0 -42 -42 -42h-102q-42 0 -42 42v106q0 40 -22.5 59.5t-64.5 19.5h-616v-185zM951 486
q0 50 -58 50h-645v-145h645q58 0 58 50v45z" />
    <glyph glyph-name="S" unicode="S" horiz-adv-x="1168" 
d="M279 536q-58 0 -58 -50v-9q0 -50 58 -50h638q50 0 90.5 -9.5t69 -30.5t43.5 -55.5t15 -83.5v-69q0 -50 -15 -84t-43.5 -55t-69 -30.5t-90.5 -9.5h-825q-42 0 -42 42v80q0 42 42 42h799q58 0 58 50v9q0 50 -58 50h-638q-50 0 -90.5 9.5t-69 30.5t-43.5 55t-15 84v69
q0 49 15 83.5t43.5 55.5t69 30.5t90.5 9.5h815q42 0 42 -42v-80q0 -42 -42 -42h-789v0z" />
    <glyph glyph-name="T" unicode="T" horiz-adv-x="1143" 
d="M664 42q0 -42 -42 -42h-102q-42 0 -42 42v494h-417q-42 0 -42 42v80q0 42 42 42h1021q42 0 42 -42v-80q0 -42 -42 -42h-418v-494z" />
    <glyph glyph-name="U" unicode="U" horiz-adv-x="1214" 
d="M1157 209q0 -100 -53.5 -154.5t-154.5 -54.5h-684q-101 0 -154.5 54.5t-53.5 154.5v449q0 42 42 42h102q42 0 42 -42v-420q0 -74 74 -74h580q74 0 74 74v420q0 42 42 42h102q42 0 42 -42v-449v0z" />
    <glyph glyph-name="V" unicode="V" horiz-adv-x="1177" 
d="M548 0q-57 0 -88 43l-447 610q-11 15 -5 31t24 16h129q24 0 38 -7.5t25 -22.5l367 -506l367 506q11 15 25 22.5t38 7.5h124q18 0 24 -16t-5 -31l-447 -610q-31 -43 -88 -43h-81v0z" />
    <glyph glyph-name="W" unicode="W" horiz-adv-x="1594" 
d="M1537 209q0 -100 -53.5 -154.5t-154.5 -54.5h-354q-127 0 -178 86q-52 -86 -178 -86h-354q-101 0 -154.5 54.5t-53.5 154.5v449q0 42 42 42h102q42 0 42 -42v-420q0 -74 74 -74h313q74 0 74 74v420q0 42 42 42h102q42 0 42 -42v-420q0 -74 74 -74h313q74 0 74 74v420
q0 42 42 42h102q42 0 42 -42v-449v0z" />
    <glyph glyph-name="X" unicode="X" horiz-adv-x="1140" 
d="M567 263l-298 -238q-19 -15 -33.5 -20t-41.5 -5h-157q-9 0 -15 5t-8 12.5t0 16t10 14.5l391 304l-385 300q-8 6 -10 14t0 15.5t8 13t15 5.5h163q27 0 41.5 -5t33.5 -20l292 -234l292 234q19 15 33.5 20t41.5 5h157q9 0 15 -5.5t8 -13t0 -15.5t-10 -14l-384 -300l390 -304
q8 -6 10 -14.5t0 -16t-8 -12.5t-15 -5h-163q-27 0 -41.5 5t-33.5 20z" />
    <glyph glyph-name="Y" unicode="Y" horiz-adv-x="1208" 
d="M215 435q0 -74 74 -74h630q74 0 74 74v223q0 42 42 42h102q42 0 42 -42v-252q0 -100 -53.5 -154.5t-154.5 -54.5h-274v-155q0 -42 -42 -42h-102q-42 0 -42 42v155h-274q-101 0 -154.5 54.5t-53.5 154.5v252q0 42 42 42h102q42 0 42 -42v-223v0z" />
    <glyph glyph-name="Z" unicode="Z" horiz-adv-x="1142" 
d="M78 0q-42 0 -42 42v61q0 20 8 32.5t22 20.5l685 380h-658q-42 0 -42 42v80q0 42 42 42h971q42 0 42 -42v-61q0 -20 -8 -32.5t-22 -20.5l-685 -380h673q42 0 42 -42v-80q0 -42 -42 -42h-986v0z" />
    <glyph glyph-name="bracketleft" unicode="[" horiz-adv-x="406" 
d="M62 706q0 32 33 32h242q33 0 33 -32v-63q0 -33 -33 -33h-108v-635h108q33 0 33 -33v-63q0 -32 -33 -32h-242q-33 0 -33 32v827z" />
    <glyph glyph-name="backslash" unicode="\" horiz-adv-x="727" 
d="M10 697q-9 14 -5 27.5t24 13.5h80q23 0 35.5 -6.5t24.5 -23.5l548 -787q9 -14 5 -27.5t-24 -13.5h-80q-23 0 -35.5 6.5t-24.5 23.5z" />
    <glyph glyph-name="bracketright" unicode="]" horiz-adv-x="406" 
d="M344 -121q0 -32 -33 -32h-242q-33 0 -33 32v63q0 33 33 33h108v635h-108q-33 0 -33 33v63q0 32 33 32h242q33 0 33 -32v-827z" />
    <glyph glyph-name="asciicircum" unicode="^" horiz-adv-x="736" 
d="M726 267q8 -13 2 -26t-24 -13h-96q-22 0 -32 5.5t-21 22.5l-187 300l-187 -300q-11 -17 -21 -22.5t-32 -5.5h-96q-18 0 -24 13t2 26l253 405q10 16 22 22t34 6h98q22 0 34 -6t22 -22z" />
    <glyph glyph-name="underscore" unicode="_" horiz-adv-x="500" 
d="M500 -132q0 -35 -35 -35h-430q-35 0 -35 35v51q0 35 35 35h430q35 0 35 -35v-51z" />
    <glyph glyph-name="grave" unicode="`" horiz-adv-x="500" 
d="M119 724q-8 10 -4 20.5t19 10.5h122q17 0 25.5 -5.5t16.5 -17.5l83 -128q6 -9 1 -20.5t-19 -11.5h-96q-17 0 -26 4.5t-19 17.5z" />
    <glyph glyph-name="a" unicode="a" 
d="M700 323q0 23 -13.5 36.5t-36.5 13.5h-556q-37 0 -37 37v73q0 37 37 37h614q36 0 65 -11.5t50 -32t32.5 -50t11.5 -65.5v-212q0 -72 -38.5 -110.5t-110.5 -38.5h-537q-72 0 -110.5 38.5t-38.5 110.5v14q0 72 38.5 110.5t110.5 38.5h519v11zM674 147q14 0 20 7.5t6 18.5
v35h-475q-14 0 -20 -7.5t-6 -18.5v-9q0 -11 6 -18.5t20 -7.5h449z" />
    <glyph glyph-name="b" unicode="b" horiz-adv-x="952" 
d="M742 520q36 0 65 -11.5t50 -32t32.5 -50t11.5 -65.5v-202q0 -36 -11.5 -65.5t-32.5 -50t-50 -32t-65 -11.5h-527q-36 0 -65 11.5t-50 32t-32.5 50t-11.5 65.5v542q0 37 37 37h93q37 0 37 -37v-238q19 26 50.5 41.5t76.5 15.5h392zM223 197q0 -23 13.5 -36.5t36.5 -13.5
h411q23 0 36.5 13.5t13.5 36.5v126q0 23 -13.5 36.5t-36.5 13.5h-411q-23 0 -36.5 -13.5t-13.5 -36.5v-126z" />
    <glyph glyph-name="c" unicode="c" horiz-adv-x="882" 
d="M809 147q37 0 37 -37v-73q0 -37 -37 -37h-599q-36 0 -65 11.5t-50 32t-32.5 50t-11.5 65.5v202q0 36 11.5 65.5t32.5 50t50 32t65 11.5h599q37 0 37 -37v-73q0 -37 -37 -37h-541q-23 0 -36.5 -13.5t-13.5 -36.5v-126q0 -23 13.5 -36.5t36.5 -13.5h541v0z" />
    <glyph glyph-name="d" unicode="d" horiz-adv-x="952" 
d="M602 520q45 0 76 -15.5t51 -41.5v238q0 37 37 37h93q37 0 37 -37v-542q0 -36 -11.5 -65.5t-32.5 -50t-50 -32t-65 -11.5h-527q-36 0 -65 11.5t-50 32t-32.5 50t-11.5 65.5v202q0 36 11.5 65.5t32.5 50t50 32t65 11.5h392zM729 323q0 23 -13.5 36.5t-36.5 13.5h-411
q-23 0 -36.5 -13.5t-13.5 -36.5v-126q0 -23 13.5 -36.5t36.5 -13.5h411q23 0 36.5 13.5t13.5 36.5v126z" />
    <glyph glyph-name="e" unicode="e" 
d="M737 520q72 0 110.5 -38.5t38.5 -110.5v-14q0 -72 -38.5 -110.5t-110.5 -38.5h-519v-11q0 -23 13.5 -36.5t36.5 -13.5h556q37 0 37 -37v-73q0 -37 -37 -37h-614q-36 0 -65 11.5t-50 32t-32.5 50t-11.5 65.5v202q0 36 11.5 65.5t32.5 50t50 32t65 11.5h527zM218 312h475
q14 0 20 7.5t6 18.5v9q0 11 -6 18.5t-20 7.5h-425q-23 0 -36.5 -13.5t-13.5 -36.5v-11z" />
    <glyph glyph-name="f" unicode="f" horiz-adv-x="670" 
d="M614 738q37 0 37 -37v-73q0 -37 -37 -37h-271q-23 0 -36.5 -13.5t-13.5 -36.5v-21h321q37 0 37 -37v-73q0 -37 -37 -37h-321v-336q0 -37 -37 -37h-93q-37 0 -37 37v336h-68q-37 0 -37 37v73q0 37 37 37h68v59q0 36 11.5 65.5t32.5 50t50 32t65 11.5h329v0z" />
    <glyph glyph-name="g" unicode="g" horiz-adv-x="952" 
d="M210 0q-36 0 -65 11.5t-50 32t-32.5 50t-11.5 65.5v202q0 36 11.5 65.5t32.5 50t50 32t65 11.5h527q36 0 65 -11.5t50 -32t32.5 -50t11.5 -65.5v-399q0 -81 -47.5 -128t-127.5 -47h-598q-37 0 -37 37v66q0 37 37 37h551q55 0 55 56v73q-20 -26 -51 -41t-76 -15h-392z
M729 323q0 23 -13.5 36.5t-36.5 13.5h-411q-23 0 -36.5 -13.5t-13.5 -36.5v-126q0 -23 13.5 -36.5t36.5 -13.5h411q23 0 36.5 13.5t13.5 36.5v126z" />
    <glyph glyph-name="h" unicode="h" horiz-adv-x="942" 
d="M727 520q36 0 65 -11.5t50 -32t32.5 -50t11.5 -65.5v-324q0 -37 -37 -37h-93q-37 0 -37 37v286q0 21 -13 35.5t-37 14.5h-391q-23 0 -36.5 -13.5t-13.5 -36.5v-286q0 -37 -37 -37h-93q-37 0 -37 37v664q0 37 37 37h93q37 0 37 -37v-238q19 26 50.5 41.5t76.5 15.5h372v0z
" />
    <glyph glyph-name="i" unicode="i" horiz-adv-x="349" 
d="M223 173q0 -11 6 -18.5t20 -7.5h42q37 0 37 -37v-73q0 -37 -37 -37h-87q-72 0 -110 38.5t-38 110.5v334q0 37 37 37h93q37 0 37 -37v-310zM223 631q0 -37 -37 -37h-93q-37 0 -37 37v70q0 37 37 37h93q37 0 37 -37v-70z" />
    <glyph glyph-name="j" unicode="j" horiz-adv-x="289" 
d="M61 483q0 37 37 37h93q37 0 37 -37v-537q0 -72 -43.5 -115.5t-115.5 -43.5h-61q-37 0 -37 37v66q0 37 37 37h8q45 0 45 44v512zM228 631q0 -37 -37 -37h-93q-37 0 -37 37v70q0 37 37 37h93q37 0 37 -37v-70z" />
    <glyph glyph-name="k" unicode="k" horiz-adv-x="894" 
d="M228 37q0 -37 -37 -37h-93q-37 0 -37 37v664q0 37 37 37h93q37 0 37 -37v-366h214l208 166q14 11 27 15t34 4h141q9 0 15 -5t7.5 -12t-1 -14.5t-9.5 -12.5l-276 -214l282 -218q7 -5 9.5 -12.5t1 -14.5t-7.5 -12t-16 -5h-143q-22 0 -35 4t-27 15l-212 169h-212v-151v0z
" />
    <glyph glyph-name="l" unicode="l" horiz-adv-x="349" 
d="M223 173q0 -11 6 -18.5t20 -7.5h42q37 0 37 -37v-73q0 -37 -37 -37h-87q-72 0 -110 38.5t-38 110.5v552q0 37 37 37h93q37 0 37 -37v-528v0z" />
    <glyph glyph-name="m" unicode="m" horiz-adv-x="1227" 
d="M530 323q0 23 -13.5 36.5t-36.5 13.5h-207q-23 0 -36.5 -13.5t-13.5 -36.5v-286q0 -37 -37 -37h-93q-37 0 -37 37v324q0 36 11.5 65.5t32.5 50t50 32t65 11.5h273q44 0 75.5 -17t49.5 -47q19 30 50.5 47t75.5 17h273q36 0 65 -11.5t50 -32t32.5 -50t11.5 -65.5v-324
q0 -37 -37 -37h-93q-37 0 -37 37v286q0 23 -13.5 36.5t-36.5 13.5h-207q-23 0 -36.5 -13.5t-13.5 -36.5v-286q0 -37 -37 -37h-93q-37 0 -37 37v286v0z" />
    <glyph glyph-name="n" unicode="n" horiz-adv-x="937" 
d="M56 361q0 36 11.5 65.5t32.5 50t50 32t65 11.5h507q36 0 65 -11.5t50 -32t32.5 -50t11.5 -65.5v-324q0 -37 -37 -37h-93q-37 0 -37 37v286q0 23 -13.5 36.5t-36.5 13.5h-391q-23 0 -36.5 -13.5t-13.5 -36.5v-286q0 -37 -37 -37h-93q-37 0 -37 37v324v0z" />
    <glyph glyph-name="o" unicode="o" horiz-adv-x="947" 
d="M210 0q-36 0 -65 11.5t-50 32t-32.5 50t-11.5 65.5v202q0 36 11.5 65.5t32.5 50t50 32t65 11.5h527q36 0 65 -11.5t50 -32t32.5 -50t11.5 -65.5v-202q0 -36 -11.5 -65.5t-32.5 -50t-50 -32t-65 -11.5h-527zM268 373q-23 0 -36.5 -13.5t-13.5 -36.5v-126q0 -23 13.5 -36.5
t36.5 -13.5h411q23 0 36.5 13.5t13.5 36.5v126q0 23 -13.5 36.5t-36.5 13.5h-411z" />
    <glyph glyph-name="p" unicode="p" horiz-adv-x="952" 
d="M350 0q-45 0 -76.5 15t-50.5 41v-232q0 -37 -37 -37h-93q-37 0 -37 37v537q0 36 11.5 65.5t32.5 50t50 32t65 11.5h527q36 0 65 -11.5t50 -32t32.5 -50t11.5 -65.5v-202q0 -36 -11.5 -65.5t-32.5 -50t-50 -32t-65 -11.5h-392zM223 197q0 -23 13.5 -36.5t36.5 -13.5h411
q23 0 36.5 13.5t13.5 36.5v126q0 23 -13.5 36.5t-36.5 13.5h-411q-23 0 -36.5 -13.5t-13.5 -36.5v-126z" />
    <glyph glyph-name="q" unicode="q" horiz-adv-x="952" 
d="M210 0q-36 0 -65 11.5t-50 32t-32.5 50t-11.5 65.5v202q0 36 11.5 65.5t32.5 50t50 32t65 11.5h527q36 0 65 -11.5t50 -32t32.5 -50t11.5 -65.5v-537q0 -37 -37 -37h-93q-37 0 -37 37v232q-20 -26 -51 -41t-76 -15h-392zM729 323q0 23 -13.5 36.5t-36.5 13.5h-411
q-23 0 -36.5 -13.5t-13.5 -36.5v-126q0 -23 13.5 -36.5t36.5 -13.5h411q23 0 36.5 13.5t13.5 36.5v126z" />
    <glyph glyph-name="r" unicode="r" horiz-adv-x="640" 
d="M56 361q0 36 11.5 65.5t32.5 50t50 32t65 11.5h369q37 0 37 -37v-73q0 -37 -37 -37h-311q-23 0 -36.5 -13.5t-13.5 -36.5v-286q0 -37 -37 -37h-93q-37 0 -37 37v324v0z" />
    <glyph glyph-name="s" unicode="s" horiz-adv-x="889" 
d="M84 0q-37 0 -37 37v73q0 37 37 37h580q14 0 20 7.5t6 18.5v9q0 11 -6 18.5t-20 7.5h-483q-72 0 -110.5 38.5t-38.5 110.5v14q0 72 38.5 110.5t110.5 38.5h614q37 0 37 -37v-73q0 -37 -37 -37h-570q-14 0 -20 -7.5t-6 -18.5v-9q0 -11 6 -18.5t20 -7.5h483
q72 0 110.5 -38.5t38.5 -110.5v-14q0 -72 -38.5 -110.5t-110.5 -38.5h-624z" />
    <glyph glyph-name="t" unicode="t" horiz-adv-x="692" 
d="M619 147q37 0 37 -37v-73q0 -37 -37 -37h-335q-36 0 -65 11.5t-50 32t-32.5 50t-11.5 65.5v214h-69q-37 0 -37 37v73q0 37 37 37h69v88q0 37 37 37h93q37 0 37 -37v-88h320q37 0 37 -37v-73q0 -37 -37 -37h-320v-176q0 -23 13.5 -36.5t36.5 -13.5h277v0z" />
    <glyph glyph-name="u" unicode="u" horiz-adv-x="937" 
d="M223 197q0 -23 13.5 -36.5t36.5 -13.5h391q23 0 36.5 13.5t13.5 36.5v286q0 37 37 37h93q37 0 37 -37v-324q0 -36 -11.5 -65.5t-32.5 -50t-50 -32t-65 -11.5h-507q-36 0 -65 11.5t-50 32t-32.5 50t-11.5 65.5v324q0 37 37 37h93q37 0 37 -37v-286v0z" />
    <glyph glyph-name="v" unicode="v" horiz-adv-x="912" 
d="M401 0q-40 0 -61 29l-330 451q-8 12 -2.5 26t23.5 14h122q20 0 30 -5.5t20 -19.5l255 -352l255 352q10 14 20 19.5t30 5.5h118q18 0 23.5 -14t-2.5 -26l-330 -451q-21 -29 -61 -29h-110v0z" />
    <glyph glyph-name="w" unicode="w" horiz-adv-x="1227" 
d="M1171 159q0 -36 -11.5 -65.5t-32.5 -50t-50 -32t-65 -11.5h-273q-44 0 -75.5 16.5t-50.5 47.5q-37 -64 -125 -64h-273q-36 0 -65 11.5t-50 32t-32.5 50t-11.5 65.5v324q0 37 37 37h93q37 0 37 -37v-286q0 -23 13.5 -36.5t36.5 -13.5h207q23 0 36.5 13.5t13.5 36.5v286
q0 37 37 37h93q37 0 37 -37v-286q0 -23 13.5 -36.5t36.5 -13.5h207q23 0 36.5 13.5t13.5 36.5v286q0 37 37 37h93q37 0 37 -37v-324v0z" />
    <glyph glyph-name="x" unicode="x" horiz-adv-x="893" 
d="M188 520q22 0 35 -4t27 -15l198 -160l199 160q14 11 27 15t34 4h141q9 0 15 -5t7.5 -11.5t-1 -14t-9.5 -13.5l-275 -214l281 -218q7 -6 9.5 -13.5t0.5 -14t-7.5 -11.5t-15.5 -5h-143q-22 0 -35 4t-27 15l-205 165l-204 -165q-14 -11 -27 -15t-34 -4h-141q-9 0 -15 5
t-7.5 11.5t1 14t9.5 13.5l281 218l-275 214q-7 6 -9.5 13.5t-0.5 14t7.5 11.5t15.5 5h143v0z" />
    <glyph glyph-name="y" unicode="y" horiz-adv-x="942" 
d="M881 -38q0 -81 -47.5 -128t-127.5 -47h-578q-37 0 -37 37v66q0 37 37 37h531q55 0 55 56v73q-20 -26 -51 -41t-76 -15h-372q-36 0 -65 11.5t-50 32t-32.5 50t-11.5 65.5v324q0 37 37 37h93q37 0 37 -37v-286q0 -23 13.5 -36.5t36.5 -13.5h391q23 0 36.5 13.5t13.5 36.5
v286q0 37 37 37h93q37 0 37 -37v-521z" />
    <glyph glyph-name="z" unicode="z" horiz-adv-x="870" 
d="M798 520q37 0 37 -37v-46q0 -16 -6 -28t-21 -20l-451 -242h441q37 0 37 -37v-73q0 -37 -37 -37h-726q-37 0 -37 37v46q0 16 6 28t21 20l451 242h-426q-37 0 -37 37v73q0 37 37 37h711z" />
    <glyph glyph-name="braceleft" unicode="{" horiz-adv-x="420" 
d="M56 229q-33 0 -33 33v63q0 32 33 32h2q22 0 30 9.5t8 27.5v156q0 90 48.5 139t139.5 49h67q33 0 33 -32v-63q0 -33 -33 -33h-10q-35 0 -56.5 -21t-21.5 -56v-108q0 -57 -24 -88t-68 -44q44 -13 68 -44t24 -88v-109q0 -35 21.5 -56t56.5 -21h10q33 0 33 -33v-63
q0 -32 -33 -32h-67q-91 0 -139.5 49t-48.5 139v157q0 18 -8 27.5t-30 9.5h-2v0z" />
    <glyph glyph-name="bar" unicode="|" horiz-adv-x="500" 
d="M213 -120q-34 0 -34 34v790q0 34 34 34h74q34 0 34 -34v-790q0 -34 -34 -34h-74v0z" />
    <glyph glyph-name="braceright" unicode="}" horiz-adv-x="416" 
d="M364 356q33 0 33 -33v-63q0 -32 -33 -32h-2q-22 0 -30 -9.5t-8 -27.5v-156q0 -90 -48.5 -139t-139.5 -49h-67q-33 0 -33 32v63q0 33 33 33h10q35 0 56.5 21t21.5 56v108q0 57 23.5 88t68.5 44q-45 13 -68.5 44t-23.5 88v108q0 35 -21.5 56t-56.5 21h-10q-33 0 -33 33v63
q0 32 33 32h67q91 0 139.5 -49t48.5 -139v-156q0 -18 8 -27.5t30 -9.5h2v0z" />
    <glyph glyph-name="asciitilde" unicode="~" horiz-adv-x="736" 
d="M215 315q-44 0 -76.5 -15t-68.5 -47q-11 -11 -24 -8t-13 20v91q0 32 19 50q30 28 73 46.5t100 18.5q50 0 87.5 -13t70 -28.5t65 -28.5t73.5 -13q44 0 76.5 15t68.5 47q11 11 24 8t13 -20v-91q0 -32 -19 -50q-30 -28 -73 -46.5t-100 -18.5q-50 0 -87.5 13t-70 28.5
t-65 28.5t-73.5 13z" />
    <glyph glyph-name="uni00A0" unicode="&#xa0;" horiz-adv-x="400" 
 />
    <glyph glyph-name="exclamdown" unicode="&#xa1;" horiz-adv-x="312" 
d="M258 575q0 -40 -40 -40h-124q-40 0 -40 40v85q0 40 40 40h124q40 0 40 -40v-85zM205 470q39 0 39 -39v-392q0 -39 -39 -39h-98q-39 0 -39 39v392q0 39 39 39h98z" />
    <glyph glyph-name="cent" unicode="&#xa2;" horiz-adv-x="992" 
d="M475 90h-269q-36 0 -65 11.5t-50 32t-32.5 50t-11.5 65.5v202q0 36 11.5 65.5t32.5 50t50 32t65 11.5h269v71q0 39 39 39h57q39 0 39 -39v-71h310q37 0 37 -37v-73q0 -37 -37 -37h-310v-226h310q37 0 37 -37v-73q0 -37 -37 -37h-310v-71q0 -39 -39 -39h-57q-39 0 -39 39
v71zM214 287q0 -23 13.5 -36.5t36.5 -13.5h211v226h-211q-23 0 -36.5 -13.5t-13.5 -36.5v-126z" />
    <glyph glyph-name="sterling" unicode="&#xa3;" horiz-adv-x="1095" 
d="M21 387q0 40 40 40h80v40q0 112 59 172.5t172 60.5h614q40 0 40 -40v-75q0 -40 -40 -40h-575q-94 0 -94 -93v-25h569q40 0 40 -40v-74q0 -40 -40 -40h-569v-118h719q40 0 40 -40v-75q0 -40 -40 -40h-975q-40 0 -40 40v75q0 40 40 40h80v118h-80q-40 0 -40 40v74z" />
    <glyph glyph-name="currency" unicode="&#xa4;" horiz-adv-x="736" 
d="M106 350q0 36 9.5 69.5t26.5 62.5l-87 88q-24 23 0 47l46 46q23 23 47 0l87 -87q29 17 62.5 26.5t70.5 9.5q36 0 70 -9.5t63 -26.5l87 87q23 23 47 0l46 -46q23 -24 0 -47l-87 -88q17 -29 26.5 -62.5t9.5 -69.5q0 -37 -9.5 -70.5t-26.5 -62.5l87 -87q23 -24 0 -47
l-46 -46q-24 -24 -47 0l-88 87q-29 -17 -62.5 -26.5t-69.5 -9.5q-37 0 -70.5 9.5t-62.5 26.5l-87 -87q-24 -24 -47 0l-46 46q-24 23 0 47l87 87q-17 29 -26.5 62.5t-9.5 70.5zM238 350q0 -27 10 -50.5t28 -41.5t41.5 -28t50.5 -10t50.5 10t41.5 28t28 41.5t10 50.5t-10 50.5
t-28 41.5t-41.5 28t-50.5 10t-50.5 -10t-41.5 -28t-28 -41.5t-10 -50.5z" />
    <glyph glyph-name="yen" unicode="&#xa5;" horiz-adv-x="1122" 
d="M69 205q0 40 40 40h364v76h-244q-97 0 -148.5 51.5t-51.5 148.5v140q0 39 39 39h98q39 0 39 -39v-112q0 -35 19 -54t54 -19h566q35 0 54 19t19 54v112q0 39 39 39h98q39 0 39 -39v-140q0 -97 -51.5 -148.5t-148.5 -51.5h-244v-76h364q40 0 40 -40v-64q0 -40 -40 -40h-364
v-62q0 -39 -39 -39h-98q-39 0 -39 39v62h-364q-40 0 -40 40v64z" />
    <glyph glyph-name="brokenbar" unicode="&#xa6;" horiz-adv-x="500" 
d="M213 -120q-34 0 -34 34v290q0 34 34 34h74q34 0 34 -34v-290q0 -34 -34 -34h-74zM213 380q-34 0 -34 34v290q0 34 34 34h74q34 0 34 -34v-290q0 -34 -34 -34h-74z" />
    <glyph glyph-name="section" unicode="&#xa7;" horiz-adv-x="1032" 
d="M778 -25q23 0 32 11.5t9 29.5v11q0 18 -9 29.5t-32 11.5h-597q-72 0 -110.5 38.5t-38.5 110.5v32q0 111 87 140q-72 34 -72 134v28q0 72 38.5 110.5t110.5 38.5h743q37 0 37 -37v-73q0 -37 -37 -37h-684q-23 0 -32 -11.5t-9 -29.5v-11q0 -18 9 -29.5t32 -11.5h597
q72 0 110.5 -38.5t38.5 -110.5v-33q0 -57 -23.5 -92t-68.5 -49q77 -31 77 -132v-28q0 -72 -38.5 -110.5t-110.5 -38.5h-743q-37 0 -37 37v73q0 37 37 37h684zM240 313q-23 0 -32 -11.5t-9 -29.5v-16q0 -18 9 -29.5t32 -11.5h553q23 0 32 11.5t9 29.5v16q0 18 -9 29.5
t-32 11.5h-553z" />
    <glyph glyph-name="dieresis" unicode="&#xa8;" horiz-adv-x="500" 
d="M334 577q-30 0 -30 32v82q0 31 30 31h122q30 0 30 -31v-82q0 -32 -30 -32h-122zM44 577q-30 0 -30 32v82q0 31 30 31h122q30 0 30 -31v-82q0 -32 -30 -32h-122z" />
    <glyph glyph-name="copyright" unicode="&#xa9;" horiz-adv-x="1124" 
d="M288 402q0 48 29.5 77t77.5 29h395q24 0 24 -24v-61q0 -22 -24 -22h-356q-25 0 -25 -26v-50q0 -26 25 -26h356q24 0 24 -22v-61q0 -24 -24 -24h-395q-48 0 -77.5 29t-29.5 77v104zM52 479q0 106 56.5 163.5t163.5 57.5h580q107 0 163.5 -57.5t56.5 -163.5v-258
q0 -106 -56.5 -163.5t-163.5 -57.5h-580q-107 0 -163.5 57.5t-56.5 163.5v258zM173 229q0 -122 122 -122h534q122 0 122 122v242q0 122 -122 122h-534q-122 0 -122 -122v-242z" />
    <glyph glyph-name="ordfeminine" unicode="&#xaa;" horiz-adv-x="743" 
d="M558 542q0 40 -40 40h-436q-30 0 -30 30v58q0 30 30 30h483q57 0 92 -34.5t35 -92.5v-170q0 -58 -31 -88.5t-88 -30.5h-422q-58 0 -88.5 30.5t-30.5 88.5v11q0 58 30.5 89t88.5 31h407v8zM32 183q0 30 30 30h600q30 0 30 -30v-58q0 -30 -30 -30h-600q-30 0 -30 30v58z
M538 402q20 0 20 20v28h-372q-11 0 -15.5 -6t-4.5 -14v-8q0 -20 20 -20h352z" />
    <glyph glyph-name="guillemotleft" unicode="&#xab;" horiz-adv-x="688" 
d="M304 260q0 14 14 30l153 175q12 14 24.5 19.5t34.5 5.5h101q19 0 24.5 -14.5t-4.5 -25.5l-168 -190l168 -190q10 -11 4.5 -25.5t-24.5 -14.5h-101q-22 0 -34.5 5.5t-24.5 19.5l-153 175q-14 16 -14 30zM24 260q0 14 14 30l153 175q12 14 24.5 19.5t34.5 5.5h101
q19 0 24.5 -14.5t-4.5 -25.5l-168 -190l168 -190q10 -11 4.5 -25.5t-24.5 -14.5h-101q-22 0 -34.5 5.5t-24.5 19.5l-153 175q-14 16 -14 30z" />
    <glyph glyph-name="logicalnot" unicode="&#xac;" horiz-adv-x="736" 
d="M33 459q0 40 40 40h590q40 0 40 -40v-302q0 -40 -40 -40h-74q-40 0 -40 40v188h-476q-40 0 -40 40v74z" />
    <glyph glyph-name="uni00AD" unicode="&#xad;" horiz-adv-x="446" 
d="M33 359q0 36 36 36h308q36 0 36 -36v-83q0 -36 -36 -36h-308q-36 0 -36 36v83z" />
    <glyph glyph-name="registered" unicode="&#xae;" horiz-adv-x="1124" 
d="M52 479q0 106 56.5 163.5t163.5 57.5h580q107 0 163.5 -57.5t56.5 -163.5v-258q0 -106 -56.5 -163.5t-163.5 -57.5h-580q-107 0 -163.5 57.5t-56.5 163.5v258zM173 229q0 -122 122 -122h534q122 0 122 122v242q0 122 -122 122h-534q-122 0 -122 -122v-242zM405 269v-53
q0 -24 -24 -24h-74q-23 0 -23 24v268q0 24 23 24h461q41 0 65 -21.5t24 -58.5v-39q0 -28 -14.5 -46.5t-40.5 -26.5q26 -7 40.5 -24.5t14.5 -45.5v-30q0 -24 -24 -24h-74q-23 0 -23 24v13q0 40 -41 40h-290zM715 356q21 0 21 21v14q0 20 -21 20h-310v-55h310z" />
    <glyph glyph-name="macron" unicode="&#xaf;" horiz-adv-x="500" 
d="M49 682q0 31 30 31h342q30 0 30 -31v-68q0 -32 -30 -32h-342q-30 0 -30 32v68v0z" />
    <glyph glyph-name="degree" unicode="&#xb0;" horiz-adv-x="522" 
d="M489 492q0 -47 -18 -88.5t-49 -72.5t-72.5 -49t-88.5 -18t-88.5 18t-72.5 49t-49 72.5t-18 88.5t18 88.5t49 72.5t72.5 49t88.5 18t88.5 -18t72.5 -49t49 -72.5t18 -88.5zM358 492q0 41 -28 69t-69 28t-69 -28t-28 -69t28 -69t69 -28t69 28t28 69z" />
    <glyph glyph-name="plusminus" unicode="&#xb1;" horiz-adv-x="736" 
d="M405 700q40 0 40 -40v-128h208q40 0 40 -40v-74q0 -40 -40 -40h-208v-128q0 -40 -40 -40h-74q-40 0 -40 40v128h-208q-40 0 -40 40v74q0 40 40 40h208v128q0 40 40 40h74zM43 114q0 40 40 40h570q40 0 40 -40v-74q0 -40 -40 -40h-570q-40 0 -40 40v74z" />
    <glyph glyph-name="uni00B2" unicode="&#xb2;" horiz-adv-x="716" 
d="M57 252q-30 0 -30 30v133q0 61 36 85.5t98 24.5h371q23 0 23 21v15q0 21 -23 21h-459q-30 0 -30 30v58q0 30 30 30h483q62 0 98 -24.5t36 -85.5v-53q0 -61 -36 -85.5t-98 -24.5h-371q-23 0 -23 -21v-36h494q30 0 30 -30v-58q0 -30 -30 -30h-599v0z" />
    <glyph glyph-name="uni00B3" unicode="&#xb3;" horiz-adv-x="722" 
d="M56 252q-30 0 -30 30v58q0 30 30 30h484q23 0 23 21v15q0 21 -23 21h-420q-30 0 -30 30v38q0 30 30 30h414q23 0 23 21v15q0 21 -23 21h-478q-30 0 -30 30v58q0 30 30 30h504q63 0 97.5 -24.5t34.5 -85.5v-16q0 -38 -15 -61.5t-42 -35.5q30 -11 46.5 -34.5t16.5 -64.5
v-16q0 -61 -34.5 -85.5t-96.5 -24.5h-511v0z" />
    <glyph glyph-name="acute" unicode="&#xb4;" horiz-adv-x="500" 
d="M277 594q-10 -13 -19 -17.5t-26 -4.5h-96q-14 0 -19 11.5t1 20.5l83 128q8 12 16.5 17.5t25.5 5.5h122q15 0 19 -10.5t-4 -20.5z" />
    <glyph glyph-name="uni00B5" unicode="&#xb5;" horiz-adv-x="942" 
d="M228 197q0 -23 13.5 -36.5t36.5 -13.5h391q23 0 36.5 13.5t13.5 36.5v286q0 37 37 37h93q37 0 37 -37v-324q0 -36 -11.5 -65.5t-32.5 -50t-50 -32t-65 -11.5h-372q-45 0 -76.5 15t-50.5 41v-232q0 -37 -37 -37h-93q-37 0 -37 37v659q0 37 37 37h93q37 0 37 -37v-286v0z
" />
    <glyph glyph-name="paragraph" unicode="&#xb6;" horiz-adv-x="1032" 
d="M760 545h-134v-680q0 -37 -37 -37h-83q-37 0 -37 37v315h-277q-36 0 -65 11.5t-50 32t-32.5 50t-11.5 65.5v202q0 36 11.5 65.5t32.5 50t50 32t65 11.5h791q40 0 40 -40v-75q0 -40 -40 -40h-66v-680q0 -37 -37 -37h-83q-37 0 -37 37v680z" />
    <glyph glyph-name="periodcentered" unicode="&#xb7;" horiz-adv-x="312" 
d="M94 267q-40 0 -40 40v85q0 40 40 40h124q40 0 40 -40v-85q0 -40 -40 -40h-124v0z" />
    <glyph glyph-name="cedilla" unicode="&#xb8;" horiz-adv-x="500" 
d="M287 -191q-10 -13 -19 -17.5t-26 -4.5h-101q-14 0 -19 11.5t1 20.5l71 109q8 12 16.5 17.5t25.5 5.5h123q15 0 19 -10.5t-4 -20.5z" />
    <glyph glyph-name="uni00B9" unicode="&#xb9;" horiz-adv-x="320" 
d="M161 252q-30 0 -30 30v300h-76q-30 0 -30 30v58q0 30 30 30h181q30 0 30 -30v-388q0 -30 -30 -30h-75v0z" />
    <glyph glyph-name="ordmasculine" unicode="&#xba;" horiz-adv-x="782" 
d="M179 284q-57 0 -92.5 34.5t-35.5 92.5v162q0 58 35.5 92.5t92.5 34.5h425q57 0 92 -34.5t35 -92.5v-162q0 -58 -35 -92.5t-92 -34.5h-425zM558 402q40 0 40 40v100q0 40 -40 40h-333q-40 0 -40 -40v-100q0 -40 40 -40h333zM51 183q0 30 30 30h620q30 0 30 -30v-58
q0 -30 -30 -30h-620q-30 0 -30 30v58z" />
    <glyph glyph-name="guillemotright" unicode="&#xbb;" horiz-adv-x="688" 
d="M664 260q0 -14 -14 -30l-153 -175q-12 -14 -24.5 -19.5t-34.5 -5.5h-101q-10 0 -16 4t-9 10t-1.5 13t6.5 13l168 190l-168 190q-5 6 -6.5 13t1.5 13t9 10t16 4h101q22 0 34.5 -5.5t24.5 -19.5l153 -175q14 -16 14 -30zM384 260q0 -14 -14 -30l-153 -175
q-12 -14 -24.5 -19.5t-34.5 -5.5h-101q-10 0 -16 4t-9 10t-1.5 13t6.5 13l168 190l-168 190q-5 6 -6.5 13t1.5 13t9 10t16 4h101q22 0 34.5 -5.5t24.5 -19.5l153 -175q14 -16 14 -30z" />
    <glyph glyph-name="onequarter" unicode="&#xbc;" horiz-adv-x="1191" 
d="M288 28q-11 -16 -23 -22t-34 -6h-67q-18 0 -22 13t5 26l440 633q11 16 23 22t34 6h66q19 0 23 -13t-5 -26zM161 252q-30 0 -30 30v300h-76q-30 0 -30 30v58q0 30 30 30h181q30 0 30 -30v-388q0 -30 -30 -30h-75zM978 96h-479q-30 0 -30 30v46q0 12 5.5 20.5t13.5 15.5
l256 219q13 11 25.5 16t30.5 5h106q13 0 15.5 -12t-6.5 -20l-238 -202h301v204q0 30 30 30h75q30 0 30 -30v-204h33q30 0 30 -30v-58q0 -30 -30 -30h-33v-66q0 -30 -30 -30h-75q-30 0 -30 30v66z" />
    <glyph glyph-name="onehalf" unicode="&#xbd;" horiz-adv-x="1271" 
d="M288 28q-11 -16 -23 -22t-34 -6h-67q-18 0 -22 13t5 26l440 633q11 16 23 22t34 6h66q19 0 23 -13t-5 -26zM161 252q-30 0 -30 30v300h-76q-30 0 -30 30v58q0 30 30 30h181q30 0 30 -30v-388q0 -30 -30 -30h-75zM612 0q-30 0 -30 30v133q0 61 36 85.5t98 24.5h371
q23 0 23 21v15q0 21 -23 21h-459q-30 0 -30 30v58q0 30 30 30h483q62 0 98 -24.5t36 -85.5v-53q0 -61 -36 -85.5t-98 -24.5h-371q-23 0 -23 -21v-36h494q30 0 30 -30v-58q0 -30 -30 -30h-599z" />
    <glyph glyph-name="threequarters" unicode="&#xbe;" horiz-adv-x="1593" 
d="M690 28q-11 -16 -23 -22t-34 -6h-67q-18 0 -22 13t5 26l440 633q11 16 23 22t34 6h66q19 0 23 -13t-5 -26zM1380 96h-479q-30 0 -30 30v46q0 12 5.5 20.5t13.5 15.5l256 219q13 11 25.5 16t30.5 5h106q13 0 15.5 -12t-6.5 -20l-238 -202h301v204q0 30 30 30h75
q30 0 30 -30v-204h33q30 0 30 -30v-58q0 -30 -30 -30h-33v-66q0 -30 -30 -30h-75q-30 0 -30 30v66zM56 252q-30 0 -30 30v58q0 30 30 30h484q23 0 23 21v15q0 21 -23 21h-420q-30 0 -30 30v38q0 30 30 30h414q23 0 23 21v15q0 21 -23 21h-478q-30 0 -30 30v58q0 30 30 30
h504q63 0 97.5 -24.5t34.5 -85.5v-16q0 -38 -15 -61.5t-42 -35.5q30 -11 46.5 -34.5t16.5 -64.5v-16q0 -61 -34.5 -85.5t-96.5 -24.5h-511z" />
    <glyph glyph-name="questiondown" unicode="&#xbf;" horiz-adv-x="887" 
d="M199 203q0 -25 14 -36.5t39 -11.5h576q40 0 40 -40v-75q0 -40 -40 -40h-595q-48 0 -87 9t-66 29.5t-42 53t-15 80.5v62q0 48 15 81t42 53t66 29t87 9h261q28 0 28 23v1q0 40 40 40h72q40 0 40 -40v-56q0 -116 -116 -116h-306q-25 0 -39 -11.5t-14 -36.5v-7zM660 700
q40 0 40 -40v-85q0 -40 -40 -40h-124q-40 0 -40 40v85q0 40 40 40h124z" />
    <glyph glyph-name="Agrave" unicode="&#xc0;" horiz-adv-x="1219" 
d="M57 491q0 100 53.5 154.5t154.5 54.5h689q101 0 154.5 -54.5t53.5 -154.5v-449q0 -42 -42 -42h-102q-42 0 -42 42v155h-733v-155q0 -42 -42 -42h-102q-42 0 -42 42v449zM976 462q0 74 -74 74h-585q-74 0 -74 -74v-101h733v101zM449 896q-8 10 -4 20.5t19 10.5h122
q17 0 25.5 -5.5t16.5 -17.5l83 -128q6 -9 1 -20.5t-19 -11.5h-96q-17 0 -26 4.5t-19 17.5z" />
    <glyph glyph-name="Aacute" unicode="&#xc1;" horiz-adv-x="1219" 
d="M57 491q0 100 53.5 154.5t154.5 54.5h689q101 0 154.5 -54.5t53.5 -154.5v-449q0 -42 -42 -42h-102q-42 0 -42 42v155h-733v-155q0 -42 -42 -42h-102q-42 0 -42 42v449zM976 462q0 74 -74 74h-585q-74 0 -74 -74v-101h733v101zM666 766q-10 -13 -19 -17.5t-26 -4.5h-96
q-14 0 -19 11.5t1 20.5l83 128q8 12 16.5 17.5t25.5 5.5h122q15 0 19 -10.5t-4 -20.5z" />
    <glyph glyph-name="Acircumflex" unicode="&#xc2;" horiz-adv-x="1219" 
d="M57 491q0 100 53.5 154.5t154.5 54.5h689q101 0 154.5 -54.5t53.5 -154.5v-449q0 -42 -42 -42h-102q-42 0 -42 42v155h-733v-155q0 -42 -42 -42h-102q-42 0 -42 42v449zM976 462q0 74 -74 74h-585q-74 0 -74 -74v-101h733v101zM609 841l-60 -75q-10 -13 -19 -17.5
t-26 -4.5h-94q-14 0 -17.5 11.5t3.5 20.5l98 128q9 12 18.5 17.5t26.5 5.5h140q17 0 26.5 -5.5t18.5 -17.5l98 -128q7 -9 3.5 -20.5t-17.5 -11.5h-94q-17 0 -26 4.5t-19 17.5z" />
    <glyph glyph-name="Atilde" unicode="&#xc3;" horiz-adv-x="1219" 
d="M57 491q0 100 53.5 154.5t154.5 54.5h689q101 0 154.5 -54.5t53.5 -154.5v-449q0 -42 -42 -42h-102q-42 0 -42 42v155h-733v-155q0 -42 -42 -42h-102q-42 0 -42 42v449zM976 462q0 74 -74 74h-585q-74 0 -74 -74v-101h733v101zM692 880q27 0 43.5 9t38.5 33q8 8 21 5.5
t13 -17.5v-76q0 -14 -4.5 -25.5t-12.5 -19.5q-20 -21 -43.5 -31t-57.5 -10q-31 0 -51 6.5t-36.5 15t-33.5 15t-42 6.5q-27 0 -43.5 -9t-38.5 -33q-8 -8 -21 -5.5t-13 17.5v76q0 14 4.5 25.5t12.5 19.5q20 21 43.5 31t57.5 10q31 0 51 -6.5t36.5 -15t33.5 -15t42 -6.5z" />
    <glyph glyph-name="Adieresis" unicode="&#xc4;" horiz-adv-x="1219" 
d="M57 491q0 100 53.5 154.5t154.5 54.5h689q101 0 154.5 -54.5t53.5 -154.5v-449q0 -42 -42 -42h-102q-42 0 -42 42v155h-733v-155q0 -42 -42 -42h-102q-42 0 -42 42v449zM976 462q0 74 -74 74h-585q-74 0 -74 -74v-101h733v101zM693 749q-30 0 -30 32v82q0 31 30 31h122
q30 0 30 -31v-82q0 -32 -30 -32h-122zM403 749q-30 0 -30 32v82q0 31 30 31h122q30 0 30 -31v-82q0 -32 -30 -32h-122z" />
    <glyph glyph-name="Aring" unicode="&#xc5;" horiz-adv-x="1219" 
d="M57 491q0 100 53.5 154.5t154.5 54.5h689q101 0 154.5 -54.5t53.5 -154.5v-449q0 -42 -42 -42h-102q-42 0 -42 42v155h-733v-155q0 -42 -42 -42h-102q-42 0 -42 42v449zM976 462q0 74 -74 74h-585q-74 0 -74 -74v-101h733v101zM571 735q-66 0 -100 25t-34 82v10
q0 56 34 81.5t100 25.5h76q66 0 100 -25.5t34 -81.5v-10q0 -57 -34 -82t-100 -25h-76zM578 877q-28 0 -37 -7t-9 -20v-6q0 -14 9 -20.5t37 -6.5h62q26 0 36 6.5t10 20.5v6q0 14 -10 20.5t-36 6.5h-62z" />
    <glyph glyph-name="AE" unicode="&#xc6;" horiz-adv-x="2013" 
d="M1934 700q42 0 42 -42v-80q0 -42 -42 -42h-738q-74 0 -74 -74v-35h712q42 0 42 -42v-70q0 -42 -42 -42h-712v-35q0 -74 74 -74h738q42 0 42 -42v-80q0 -42 -42 -42h-790q-98 0 -151.5 51.5t-56.5 145.5h-693v-155q0 -42 -42 -42h-102q-42 0 -42 42v449q0 100 53.5 154.5
t154.5 54.5h586q63 0 107.5 -22t70.5 -64q25 42 70 64t108 22h727zM317 536q-74 0 -74 -74v-101h693v101q0 74 -74 74h-545z" />
    <glyph glyph-name="Ccedilla" unicode="&#xc7;" horiz-adv-x="1148" 
d="M260 0q-101 0 -154.5 54.5t-53.5 154.5v282q0 100 53.5 154.5t154.5 54.5h810q42 0 42 -42v-80q0 -42 -42 -42h-758q-74 0 -74 -74v-224q0 -74 74 -74h758q42 0 42 -42v-80q0 -42 -42 -42h-810zM626 -191q-10 -13 -19 -17.5t-26 -4.5h-101q-14 0 -19 11.5t1 20.5l71 109
q8 12 16.5 17.5t25.5 5.5h123q15 0 19 -10.5t-4 -20.5z" />
    <glyph glyph-name="Egrave" unicode="&#xc8;" horiz-adv-x="1169" 
d="M238 238q0 -74 74 -74h778q42 0 42 -42v-80q0 -42 -42 -42h-830q-101 0 -154.5 54.5t-53.5 154.5v282q0 100 53.5 154.5t154.5 54.5h830q42 0 42 -42v-80q0 -42 -42 -42h-778q-74 0 -74 -74v-35h752q42 0 42 -42v-70q0 -42 -42 -42h-752v-35zM455 896q-8 10 -4 20.5
t19 10.5h122q17 0 25.5 -5.5t16.5 -17.5l83 -128q6 -9 1 -20.5t-19 -11.5h-96q-17 0 -26 4.5t-19 17.5z" />
    <glyph glyph-name="Eacute" unicode="&#xc9;" horiz-adv-x="1169" 
d="M238 238q0 -74 74 -74h778q42 0 42 -42v-80q0 -42 -42 -42h-830q-101 0 -154.5 54.5t-53.5 154.5v282q0 100 53.5 154.5t154.5 54.5h830q42 0 42 -42v-80q0 -42 -42 -42h-778q-74 0 -74 -74v-35h752q42 0 42 -42v-70q0 -42 -42 -42h-752v-35zM672 766q-10 -13 -19 -17.5
t-26 -4.5h-96q-14 0 -19 11.5t1 20.5l83 128q8 12 16.5 17.5t25.5 5.5h122q15 0 19 -10.5t-4 -20.5z" />
    <glyph glyph-name="Ecircumflex" unicode="&#xca;" horiz-adv-x="1169" 
d="M238 238q0 -74 74 -74h778q42 0 42 -42v-80q0 -42 -42 -42h-830q-101 0 -154.5 54.5t-53.5 154.5v282q0 100 53.5 154.5t154.5 54.5h830q42 0 42 -42v-80q0 -42 -42 -42h-778q-74 0 -74 -74v-35h752q42 0 42 -42v-70q0 -42 -42 -42h-752v-35zM615 841l-60 -75
q-10 -13 -19 -17.5t-26 -4.5h-94q-14 0 -17.5 11.5t3.5 20.5l98 128q9 12 18.5 17.5t26.5 5.5h140q17 0 26.5 -5.5t18.5 -17.5l98 -128q7 -9 3.5 -20.5t-17.5 -11.5h-94q-17 0 -26 4.5t-19 17.5z" />
    <glyph glyph-name="Edieresis" unicode="&#xcb;" horiz-adv-x="1169" 
d="M238 238q0 -74 74 -74h778q42 0 42 -42v-80q0 -42 -42 -42h-830q-101 0 -154.5 54.5t-53.5 154.5v282q0 100 53.5 154.5t154.5 54.5h830q42 0 42 -42v-80q0 -42 -42 -42h-778q-74 0 -74 -74v-35h752q42 0 42 -42v-70q0 -42 -42 -42h-752v-35zM699 749q-30 0 -30 32v82
q0 31 30 31h122q30 0 30 -31v-82q0 -32 -30 -32h-122zM409 749q-30 0 -30 32v82q0 31 30 31h122q30 0 30 -31v-82q0 -32 -30 -32h-122z" />
    <glyph glyph-name="Igrave" unicode="&#xcc;" horiz-adv-x="310" 
d="M248 42q0 -42 -42 -42h-102q-42 0 -42 42v616q0 42 42 42h102q42 0 42 -42v-616zM-5 896q-8 10 -4 20.5t19 10.5h122q17 0 25.5 -5.5t16.5 -17.5l83 -128q6 -9 1 -20.5t-19 -11.5h-96q-17 0 -26 4.5t-19 17.5z" />
    <glyph glyph-name="Iacute" unicode="&#xcd;" horiz-adv-x="310" 
d="M248 42q0 -42 -42 -42h-102q-42 0 -42 42v616q0 42 42 42h102q42 0 42 -42v-616zM212 766q-10 -13 -19 -17.5t-26 -4.5h-96q-14 0 -19 11.5t1 20.5l83 128q8 12 16.5 17.5t25.5 5.5h122q15 0 19 -10.5t-4 -20.5z" />
    <glyph glyph-name="Icircumflex" unicode="&#xce;" horiz-adv-x="310" 
d="M248 42q0 -42 -42 -42h-102q-42 0 -42 42v616q0 42 42 42h102q42 0 42 -42v-616zM155 841l-60 -75q-10 -13 -19 -17.5t-26 -4.5h-94q-14 0 -17.5 11.5t3.5 20.5l98 128q9 12 18.5 17.5t26.5 5.5h140q17 0 26.5 -5.5t18.5 -17.5l98 -128q7 -9 3.5 -20.5t-17.5 -11.5h-94
q-17 0 -26 4.5t-19 17.5z" />
    <glyph glyph-name="Idieresis" unicode="&#xcf;" horiz-adv-x="310" 
d="M229 749q-30 0 -30 32v82q0 31 30 31h122q30 0 30 -31v-82q0 -32 -30 -32h-122zM-41 749q-30 0 -30 32v82q0 31 30 31h122q30 0 30 -31v-82q0 -32 -30 -32h-122zM248 42q0 -42 -42 -42h-102q-42 0 -42 42v616q0 42 42 42h102q42 0 42 -42v-616z" />
    <glyph glyph-name="Eth" unicode="&#xd0;" horiz-adv-x="1237" 
d="M82 658q0 42 42 42h823q118 0 179 -62.5t61 -178.5v-218q0 -116 -61 -178.5t-179 -62.5h-823q-42 0 -42 42v231h-30q-42 0 -42 42v70q0 42 42 42h30v231zM1001 433q0 103 -104 103h-629v-109h282q42 0 42 -42v-70q0 -42 -42 -42h-282v-109h629q104 0 104 103v166z" />
    <glyph glyph-name="Ntilde" unicode="&#xd1;" horiz-adv-x="1214" 
d="M57 491q0 100 53.5 154.5t154.5 54.5h684q101 0 154.5 -54.5t53.5 -154.5v-449q0 -42 -42 -42h-102q-42 0 -42 42v420q0 74 -74 74h-580q-74 0 -74 -74v-420q0 -42 -42 -42h-102q-42 0 -42 42v449zM689 880q27 0 43.5 9t38.5 33q8 8 21 5.5t13 -17.5v-76
q0 -14 -4.5 -25.5t-12.5 -19.5q-20 -21 -43.5 -31t-57.5 -10q-31 0 -51 6.5t-36.5 15t-33.5 15t-42 6.5q-27 0 -43.5 -9t-38.5 -33q-8 -8 -21 -5.5t-13 17.5v76q0 14 4.5 25.5t12.5 19.5q20 21 43.5 31t57.5 10q31 0 51 -6.5t36.5 -15t33.5 -15t42 -6.5z" />
    <glyph glyph-name="Ograve" unicode="&#xd2;" horiz-adv-x="1234" 
d="M260 0q-101 0 -154.5 54.5t-53.5 154.5v282q0 100 53.5 154.5t154.5 54.5h714q101 0 154.5 -54.5t53.5 -154.5v-282q0 -100 -53.5 -154.5t-154.5 -54.5h-714zM922 164q74 0 74 74v224q0 74 -74 74h-610q-74 0 -74 -74v-224q0 -74 74 -74h610zM457 896q-8 10 -4 20.5
t19 10.5h122q17 0 25.5 -5.5t16.5 -17.5l83 -128q6 -9 1 -20.5t-19 -11.5h-96q-17 0 -26 4.5t-19 17.5z" />
    <glyph glyph-name="Oacute" unicode="&#xd3;" horiz-adv-x="1234" 
d="M260 0q-101 0 -154.5 54.5t-53.5 154.5v282q0 100 53.5 154.5t154.5 54.5h714q101 0 154.5 -54.5t53.5 -154.5v-282q0 -100 -53.5 -154.5t-154.5 -54.5h-714zM922 164q74 0 74 74v224q0 74 -74 74h-610q-74 0 -74 -74v-224q0 -74 74 -74h610zM674 766q-10 -13 -19 -17.5
t-26 -4.5h-96q-14 0 -19 11.5t1 20.5l83 128q8 12 16.5 17.5t25.5 5.5h122q15 0 19 -10.5t-4 -20.5z" />
    <glyph glyph-name="Ocircumflex" unicode="&#xd4;" horiz-adv-x="1234" 
d="M260 0q-101 0 -154.5 54.5t-53.5 154.5v282q0 100 53.5 154.5t154.5 54.5h714q101 0 154.5 -54.5t53.5 -154.5v-282q0 -100 -53.5 -154.5t-154.5 -54.5h-714zM922 164q74 0 74 74v224q0 74 -74 74h-610q-74 0 -74 -74v-224q0 -74 74 -74h610zM617 841l-60 -75
q-10 -13 -19 -17.5t-26 -4.5h-94q-14 0 -17.5 11.5t3.5 20.5l98 128q9 12 18.5 17.5t26.5 5.5h140q17 0 26.5 -5.5t18.5 -17.5l98 -128q7 -9 3.5 -20.5t-17.5 -11.5h-94q-17 0 -26 4.5t-19 17.5z" />
    <glyph glyph-name="Otilde" unicode="&#xd5;" horiz-adv-x="1234" 
d="M260 0q-101 0 -154.5 54.5t-53.5 154.5v282q0 100 53.5 154.5t154.5 54.5h714q101 0 154.5 -54.5t53.5 -154.5v-282q0 -100 -53.5 -154.5t-154.5 -54.5h-714zM922 164q74 0 74 74v224q0 74 -74 74h-610q-74 0 -74 -74v-224q0 -74 74 -74h610zM699 880q27 0 43.5 9
t38.5 33q8 8 21 5.5t13 -17.5v-76q0 -14 -4.5 -25.5t-12.5 -19.5q-20 -21 -43.5 -31t-57.5 -10q-31 0 -51 6.5t-36.5 15t-33.5 15t-42 6.5q-27 0 -43.5 -9t-38.5 -33q-8 -8 -21 -5.5t-13 17.5v76q0 14 4.5 25.5t12.5 19.5q20 21 43.5 31t57.5 10q31 0 51 -6.5t36.5 -15
t33.5 -15t42 -6.5z" />
    <glyph glyph-name="Odieresis" unicode="&#xd6;" horiz-adv-x="1234" 
d="M260 0q-101 0 -154.5 54.5t-53.5 154.5v282q0 100 53.5 154.5t154.5 54.5h714q101 0 154.5 -54.5t53.5 -154.5v-282q0 -100 -53.5 -154.5t-154.5 -54.5h-714zM922 164q74 0 74 74v224q0 74 -74 74h-610q-74 0 -74 -74v-224q0 -74 74 -74h610zM701 749q-30 0 -30 32v82
q0 31 30 31h122q30 0 30 -31v-82q0 -32 -30 -32h-122zM411 749q-30 0 -30 32v82q0 31 30 31h122q30 0 30 -31v-82q0 -32 -30 -32h-122z" />
    <glyph glyph-name="multiply" unicode="&#xd7;" horiz-adv-x="736" 
d="M85 119q-27 28 0 57l174 174l-174 174q-27 28 0 57l52 52q28 27 57 0l174 -174l174 174q28 27 57 0l52 -52q27 -29 0 -57l-174 -174l174 -174q27 -29 0 -57l-52 -52q-29 -27 -57 0l-174 174l-174 -174q-29 -27 -57 0z" />
    <glyph glyph-name="Oslash" unicode="&#xd8;" horiz-adv-x="1234" 
d="M1119 653q63 -54 63 -162v-282q0 -100 -53.5 -154.5t-154.5 -54.5h-674l-12 -10q-18 -14 -34.5 -22t-39.5 -8h-142q-9 0 -14.5 5t-7 11.5t1 14t8.5 12.5l55 43q-63 54 -63 163v282q0 100 53.5 154.5t154.5 54.5h673l13 10q18 14 34.5 22t39.5 8h142q9 0 14 -5t6.5 -11.5
t-0.5 -14t-8 -12.5zM238 238q0 -49 34 -66l456 364h-416q-74 0 -74 -74v-224zM922 164q74 0 74 74v224q0 49 -34 66l-456 -364h416z" />
    <glyph glyph-name="Ugrave" unicode="&#xd9;" horiz-adv-x="1214" 
d="M1157 209q0 -100 -53.5 -154.5t-154.5 -54.5h-684q-101 0 -154.5 54.5t-53.5 154.5v449q0 42 42 42h102q42 0 42 -42v-420q0 -74 74 -74h580q74 0 74 74v420q0 42 42 42h102q42 0 42 -42v-449zM447 896q-8 10 -4 20.5t19 10.5h122q17 0 25.5 -5.5t16.5 -17.5l83 -128
q6 -9 1 -20.5t-19 -11.5h-96q-17 0 -26 4.5t-19 17.5z" />
    <glyph glyph-name="Uacute" unicode="&#xda;" horiz-adv-x="1214" 
d="M1157 209q0 -100 -53.5 -154.5t-154.5 -54.5h-684q-101 0 -154.5 54.5t-53.5 154.5v449q0 42 42 42h102q42 0 42 -42v-420q0 -74 74 -74h580q74 0 74 74v420q0 42 42 42h102q42 0 42 -42v-449zM664 766q-10 -13 -19 -17.5t-26 -4.5h-96q-14 0 -19 11.5t1 20.5l83 128
q8 12 16.5 17.5t25.5 5.5h122q15 0 19 -10.5t-4 -20.5z" />
    <glyph glyph-name="Ucircumflex" unicode="&#xdb;" horiz-adv-x="1214" 
d="M1157 209q0 -100 -53.5 -154.5t-154.5 -54.5h-684q-101 0 -154.5 54.5t-53.5 154.5v449q0 42 42 42h102q42 0 42 -42v-420q0 -74 74 -74h580q74 0 74 74v420q0 42 42 42h102q42 0 42 -42v-449zM607 841l-60 -75q-10 -13 -19 -17.5t-26 -4.5h-94q-14 0 -17.5 11.5
t3.5 20.5l98 128q9 12 18.5 17.5t26.5 5.5h140q17 0 26.5 -5.5t18.5 -17.5l98 -128q7 -9 3.5 -20.5t-17.5 -11.5h-94q-17 0 -26 4.5t-19 17.5z" />
    <glyph glyph-name="Udieresis" unicode="&#xdc;" horiz-adv-x="1214" 
d="M1157 209q0 -100 -53.5 -154.5t-154.5 -54.5h-684q-101 0 -154.5 54.5t-53.5 154.5v449q0 42 42 42h102q42 0 42 -42v-420q0 -74 74 -74h580q74 0 74 74v420q0 42 42 42h102q42 0 42 -42v-449zM691 749q-30 0 -30 32v82q0 31 30 31h122q30 0 30 -31v-82q0 -32 -30 -32
h-122zM401 749q-30 0 -30 32v82q0 31 30 31h122q30 0 30 -31v-82q0 -32 -30 -32h-122z" />
    <glyph glyph-name="Yacute" unicode="&#xdd;" horiz-adv-x="1208" 
d="M215 435q0 -74 74 -74h630q74 0 74 74v223q0 42 42 42h102q42 0 42 -42v-252q0 -100 -53.5 -154.5t-154.5 -54.5h-274v-155q0 -42 -42 -42h-102q-42 0 -42 42v155h-274q-101 0 -154.5 54.5t-53.5 154.5v252q0 42 42 42h102q42 0 42 -42v-223zM661 766q-10 -13 -19 -17.5
t-26 -4.5h-96q-14 0 -19 11.5t1 20.5l83 128q8 12 16.5 17.5t25.5 5.5h122q15 0 19 -10.5t-4 -20.5z" />
    <glyph glyph-name="Thorn" unicode="&#xde;" horiz-adv-x="1155" 
d="M62 658q0 42 42 42h102q42 0 42 -42v-38h676q101 0 154.5 -54.5t53.5 -154.5v-64q0 -100 -53.5 -154.5t-154.5 -54.5h-676v-96q0 -42 -42 -42h-102q-42 0 -42 42v616zM946 390q0 66 -66 66h-632v-154h632q66 0 66 66v22z" />
    <glyph glyph-name="germandbls" unicode="&#xdf;" horiz-adv-x="1034" 
d="M126 579q0 36 11.5 65.5t32.5 50t50 32t65 11.5h177q36 0 65 -11.5t50 -32t32.5 -50t11.5 -65.5v-105q0 -35 35 -35h186q36 0 65 -11.5t50 -32t32.5 -50t11.5 -65.5v-121q0 -36 -11.5 -65.5t-32.5 -50t-50 -32t-65 -11.5h-423q-37 0 -37 37v73q0 37 37 37h365
q23 0 36.5 13.5t13.5 36.5v45q0 23 -13.5 36.5t-36.5 13.5h-188q-69 0 -105.5 36t-36.5 106v107q0 23 -13.5 36.5t-36.5 13.5h-61q-23 0 -36.5 -13.5t-13.5 -36.5v-504q0 -37 -37 -37h-93q-37 0 -37 37v336h-68q-37 0 -37 37v73q0 37 37 37h68v59v0z" />
    <glyph glyph-name="agrave" unicode="&#xe0;" 
d="M700 323q0 23 -13.5 36.5t-36.5 13.5h-556q-37 0 -37 37v73q0 37 37 37h614q36 0 65 -11.5t50 -32t32.5 -50t11.5 -65.5v-212q0 -72 -38.5 -110.5t-110.5 -38.5h-537q-72 0 -110.5 38.5t-38.5 110.5v14q0 72 38.5 110.5t110.5 38.5h519v11zM674 147q14 0 20 7.5t6 18.5
v35h-475q-14 0 -20 -7.5t-6 -18.5v-9q0 -11 6 -18.5t20 -7.5h449zM289 724q-8 10 -4 20.5t19 10.5h122q17 0 25.5 -5.5t16.5 -17.5l83 -128q6 -9 1 -20.5t-19 -11.5h-96q-17 0 -26 4.5t-19 17.5z" />
    <glyph glyph-name="aacute" unicode="&#xe1;" 
d="M700 323q0 23 -13.5 36.5t-36.5 13.5h-556q-37 0 -37 37v73q0 37 37 37h614q36 0 65 -11.5t50 -32t32.5 -50t11.5 -65.5v-212q0 -72 -38.5 -110.5t-110.5 -38.5h-537q-72 0 -110.5 38.5t-38.5 110.5v14q0 72 38.5 110.5t110.5 38.5h519v11zM674 147q14 0 20 7.5t6 18.5
v35h-475q-14 0 -20 -7.5t-6 -18.5v-9q0 -11 6 -18.5t20 -7.5h449zM506 594q-10 -13 -19 -17.5t-26 -4.5h-96q-14 0 -19 11.5t1 20.5l83 128q8 12 16.5 17.5t25.5 5.5h122q15 0 19 -10.5t-4 -20.5z" />
    <glyph glyph-name="acircumflex" unicode="&#xe2;" 
d="M700 323q0 23 -13.5 36.5t-36.5 13.5h-556q-37 0 -37 37v73q0 37 37 37h614q36 0 65 -11.5t50 -32t32.5 -50t11.5 -65.5v-212q0 -72 -38.5 -110.5t-110.5 -38.5h-537q-72 0 -110.5 38.5t-38.5 110.5v14q0 72 38.5 110.5t110.5 38.5h519v11zM674 147q14 0 20 7.5t6 18.5
v35h-475q-14 0 -20 -7.5t-6 -18.5v-9q0 -11 6 -18.5t20 -7.5h449zM449 669l-60 -75q-10 -13 -19 -17.5t-26 -4.5h-94q-14 0 -17.5 11.5t3.5 20.5l98 128q9 12 18.5 17.5t26.5 5.5h140q17 0 26.5 -5.5t18.5 -17.5l98 -128q7 -9 3.5 -20.5t-17.5 -11.5h-94q-17 0 -26 4.5
t-19 17.5z" />
    <glyph glyph-name="atilde" unicode="&#xe3;" 
d="M700 323q0 23 -13.5 36.5t-36.5 13.5h-556q-37 0 -37 37v73q0 37 37 37h614q36 0 65 -11.5t50 -32t32.5 -50t11.5 -65.5v-212q0 -72 -38.5 -110.5t-110.5 -38.5h-537q-72 0 -110.5 38.5t-38.5 110.5v14q0 72 38.5 110.5t110.5 38.5h519v11zM674 147q14 0 20 7.5t6 18.5
v35h-475q-14 0 -20 -7.5t-6 -18.5v-9q0 -11 6 -18.5t20 -7.5h449zM532 708q27 0 43.5 9t38.5 33q8 8 21 5.5t13 -17.5v-76q0 -14 -4.5 -25.5t-12.5 -19.5q-20 -21 -43.5 -31t-57.5 -10q-31 0 -51 6.5t-36.5 15t-33.5 15t-42 6.5q-27 0 -43.5 -9t-38.5 -33q-8 -8 -21 -5.5
t-13 17.5v76q0 14 4.5 25.5t12.5 19.5q20 21 43.5 31t57.5 10q31 0 51 -6.5t36.5 -15t33.5 -15t42 -6.5z" />
    <glyph glyph-name="adieresis" unicode="&#xe4;" 
d="M700 323q0 23 -13.5 36.5t-36.5 13.5h-556q-37 0 -37 37v73q0 37 37 37h614q36 0 65 -11.5t50 -32t32.5 -50t11.5 -65.5v-212q0 -72 -38.5 -110.5t-110.5 -38.5h-537q-72 0 -110.5 38.5t-38.5 110.5v14q0 72 38.5 110.5t110.5 38.5h519v11zM674 147q14 0 20 7.5t6 18.5
v35h-475q-14 0 -20 -7.5t-6 -18.5v-9q0 -11 6 -18.5t20 -7.5h449zM533 575q-30 0 -30 32v82q0 31 30 31h122q30 0 30 -31v-82q0 -32 -30 -32h-122zM243 575q-30 0 -30 32v82q0 31 30 31h122q30 0 30 -31v-82q0 -32 -30 -32h-122z" />
    <glyph glyph-name="aring" unicode="&#xe5;" 
d="M700 323q0 23 -13.5 36.5t-36.5 13.5h-556q-37 0 -37 37v73q0 37 37 37h614q36 0 65 -11.5t50 -32t32.5 -50t11.5 -65.5v-212q0 -72 -38.5 -110.5t-110.5 -38.5h-537q-72 0 -110.5 38.5t-38.5 110.5v14q0 72 38.5 110.5t110.5 38.5h519v11zM674 147q14 0 20 7.5t6 18.5
v35h-475q-14 0 -20 -7.5t-6 -18.5v-9q0 -11 6 -18.5t20 -7.5h449zM411 563q-66 0 -100 25t-34 82v10q0 56 34 81.5t100 25.5h76q66 0 100 -25.5t34 -81.5v-10q0 -57 -34 -82t-100 -25h-76zM418 705q-28 0 -37 -7t-9 -20v-6q0 -14 9 -20.5t37 -6.5h62q26 0 36 6.5t10 20.5v6
q0 14 -10 20.5t-36 6.5h-62z" />
    <glyph glyph-name="ae" unicode="&#xe6;" horiz-adv-x="1527" 
d="M1346 520q72 0 110.5 -38.5t38.5 -110.5v-14q0 -72 -38.5 -110.5t-110.5 -38.5h-499v-11q0 -23 13.5 -36.5t36.5 -13.5h536q37 0 37 -37v-73q0 -37 -37 -37h-544q-44 0 -75.5 16.5t-50.5 47.5q-37 -64 -125 -64h-457q-72 0 -110.5 38.5t-38.5 110.5v14q0 72 38.5 110.5
t110.5 38.5h499v11q0 23 -13.5 36.5t-36.5 13.5h-536q-37 0 -37 37v73q0 37 37 37h544q44 0 75.5 -17t49.5 -47q19 30 50.5 47t75.5 17h457zM630 147q23 0 36.5 13.5t13.5 36.5v11h-455q-14 0 -20 -7.5t-6 -18.5v-9q0 -11 6 -18.5t20 -7.5h405zM847 312h455q14 0 20 7.5
t6 18.5v9q0 11 -6 18.5t-20 7.5h-405q-23 0 -36.5 -13.5t-13.5 -36.5v-11z" />
    <glyph glyph-name="ccedilla" unicode="&#xe7;" horiz-adv-x="882" 
d="M809 147q37 0 37 -37v-73q0 -37 -37 -37h-599q-36 0 -65 11.5t-50 32t-32.5 50t-11.5 65.5v202q0 36 11.5 65.5t32.5 50t50 32t65 11.5h599q37 0 37 -37v-73q0 -37 -37 -37h-541q-23 0 -36.5 -13.5t-13.5 -36.5v-126q0 -23 13.5 -36.5t36.5 -13.5h541zM485 -191
q-10 -13 -19 -17.5t-26 -4.5h-101q-14 0 -19 11.5t1 20.5l71 109q8 12 16.5 17.5t25.5 5.5h123q15 0 19 -10.5t-4 -20.5z" />
    <glyph glyph-name="egrave" unicode="&#xe8;" 
d="M737 520q72 0 110.5 -38.5t38.5 -110.5v-14q0 -72 -38.5 -110.5t-110.5 -38.5h-519v-11q0 -23 13.5 -36.5t36.5 -13.5h556q37 0 37 -37v-73q0 -37 -37 -37h-614q-36 0 -65 11.5t-50 32t-32.5 50t-11.5 65.5v202q0 36 11.5 65.5t32.5 50t50 32t65 11.5h527zM218 312h475
q14 0 20 7.5t6 18.5v9q0 11 -6 18.5t-20 7.5h-425q-23 0 -36.5 -13.5t-13.5 -36.5v-11zM305 724q-8 10 -4 20.5t19 10.5h122q17 0 25.5 -5.5t16.5 -17.5l83 -128q6 -9 1 -20.5t-19 -11.5h-96q-17 0 -26 4.5t-19 17.5z" />
    <glyph glyph-name="eacute" unicode="&#xe9;" 
d="M737 520q72 0 110.5 -38.5t38.5 -110.5v-14q0 -72 -38.5 -110.5t-110.5 -38.5h-519v-11q0 -23 13.5 -36.5t36.5 -13.5h556q37 0 37 -37v-73q0 -37 -37 -37h-614q-36 0 -65 11.5t-50 32t-32.5 50t-11.5 65.5v202q0 36 11.5 65.5t32.5 50t50 32t65 11.5h527zM218 312h475
q14 0 20 7.5t6 18.5v9q0 11 -6 18.5t-20 7.5h-425q-23 0 -36.5 -13.5t-13.5 -36.5v-11zM522 594q-10 -13 -19 -17.5t-26 -4.5h-96q-14 0 -19 11.5t1 20.5l83 128q8 12 16.5 17.5t25.5 5.5h122q15 0 19 -10.5t-4 -20.5z" />
    <glyph glyph-name="ecircumflex" unicode="&#xea;" 
d="M737 520q72 0 110.5 -38.5t38.5 -110.5v-14q0 -72 -38.5 -110.5t-110.5 -38.5h-519v-11q0 -23 13.5 -36.5t36.5 -13.5h556q37 0 37 -37v-73q0 -37 -37 -37h-614q-36 0 -65 11.5t-50 32t-32.5 50t-11.5 65.5v202q0 36 11.5 65.5t32.5 50t50 32t65 11.5h527zM218 312h475
q14 0 20 7.5t6 18.5v9q0 11 -6 18.5t-20 7.5h-425q-23 0 -36.5 -13.5t-13.5 -36.5v-11zM465 669l-60 -75q-10 -13 -19 -17.5t-26 -4.5h-94q-14 0 -17.5 11.5t3.5 20.5l98 128q9 12 18.5 17.5t26.5 5.5h140q17 0 26.5 -5.5t18.5 -17.5l98 -128q7 -9 3.5 -20.5t-17.5 -11.5
h-94q-17 0 -26 4.5t-19 17.5z" />
    <glyph glyph-name="edieresis" unicode="&#xeb;" 
d="M737 520q72 0 110.5 -38.5t38.5 -110.5v-14q0 -72 -38.5 -110.5t-110.5 -38.5h-519v-11q0 -23 13.5 -36.5t36.5 -13.5h556q37 0 37 -37v-73q0 -37 -37 -37h-614q-36 0 -65 11.5t-50 32t-32.5 50t-11.5 65.5v202q0 36 11.5 65.5t32.5 50t50 32t65 11.5h527zM218 312h475
q14 0 20 7.5t6 18.5v9q0 11 -6 18.5t-20 7.5h-425q-23 0 -36.5 -13.5t-13.5 -36.5v-11zM549 577q-30 0 -30 32v82q0 31 30 31h122q30 0 30 -31v-82q0 -32 -30 -32h-122zM259 577q-30 0 -30 32v82q0 31 30 31h122q30 0 30 -31v-82q0 -32 -30 -32h-122z" />
    <glyph glyph-name="igrave" unicode="&#xec;" horiz-adv-x="349" 
d="M-19 724q-8 10 -4 20.5t19 10.5h122q17 0 25.5 -5.5t16.5 -17.5l83 -128q6 -9 1 -20.5t-19 -11.5h-96q-17 0 -26 4.5t-19 17.5zM223 173q0 -11 6 -18.5t20 -7.5h42q37 0 37 -37v-73q0 -37 -37 -37h-87q-72 0 -110 38.5t-38 110.5v334q0 37 37 37h93q37 0 37 -37v-310z
" />
    <glyph glyph-name="iacute" unicode="&#xed;" horiz-adv-x="349" 
d="M198 594q-10 -13 -19 -17.5t-26 -4.5h-96q-14 0 -19 11.5t1 20.5l83 128q8 12 16.5 17.5t25.5 5.5h122q15 0 19 -10.5t-4 -20.5zM223 173q0 -11 6 -18.5t20 -7.5h42q37 0 37 -37v-73q0 -37 -37 -37h-87q-72 0 -110 38.5t-38 110.5v334q0 37 37 37h93q37 0 37 -37v-310z
" />
    <glyph glyph-name="icircumflex" unicode="&#xee;" horiz-adv-x="349" 
d="M223 173q0 -11 6 -18.5t20 -7.5h42q37 0 37 -37v-73q0 -37 -37 -37h-87q-72 0 -110 38.5t-38 110.5v334q0 37 37 37h93q37 0 37 -37v-310zM142 669l-60 -75q-10 -13 -19 -17.5t-26 -4.5h-94q-14 0 -17.5 11.5t3.5 20.5l98 128q9 12 18.5 17.5t26.5 5.5h140
q17 0 26.5 -5.5t18.5 -17.5l98 -128q7 -9 3.5 -20.5t-17.5 -11.5h-94q-17 0 -26 4.5t-19 17.5z" />
    <glyph glyph-name="idieresis" unicode="&#xef;" horiz-adv-x="349" 
d="M214 577q-30 0 -30 32v82q0 31 30 31h122q30 0 30 -31v-82q0 -32 -30 -32h-122zM-56 577q-30 0 -30 32v82q0 31 30 31h122q30 0 30 -31v-82q0 -32 -30 -32h-122zM223 173q0 -11 6 -18.5t20 -7.5h42q37 0 37 -37v-73q0 -37 -37 -37h-87q-72 0 -110 38.5t-38 110.5v334
q0 37 37 37h93q37 0 37 -37v-310z" />
    <glyph glyph-name="eth" unicode="&#xf0;" horiz-adv-x="952" 
d="M545 544q-6 0 -9 3.5t-1 11.5l9 32h-102q-37 0 -37 37v73q0 37 37 37h142l11 40q3 12 15 12h31q14 0 10 -15l-10 -37h19q113 0 174.5 -61.5t61.5 -174.5v-343q0 -36 -11.5 -65.5t-32.5 -50t-50 -32t-65 -11.5h-527q-36 0 -65 11.5t-50 32t-32.5 50t-11.5 65.5v202
q0 36 11.5 65.5t32.5 50t50 32t65 11.5h392q45 0 76 -15.5t51 -41.5v23q0 56 -24.5 80.5t-80.5 24.5h-24l-9 -35q-3 -12 -15 -12h-31zM729 323q0 23 -13.5 36.5t-36.5 13.5h-411q-23 0 -36.5 -13.5t-13.5 -36.5v-126q0 -23 13.5 -36.5t36.5 -13.5h411q23 0 36.5 13.5
t13.5 36.5v126z" />
    <glyph glyph-name="ntilde" unicode="&#xf1;" horiz-adv-x="937" 
d="M56 361q0 36 11.5 65.5t32.5 50t50 32t65 11.5h507q36 0 65 -11.5t50 -32t32.5 -50t11.5 -65.5v-324q0 -37 -37 -37h-93q-37 0 -37 37v286q0 23 -13.5 36.5t-36.5 13.5h-391q-23 0 -36.5 -13.5t-13.5 -36.5v-286q0 -37 -37 -37h-93q-37 0 -37 37v324zM551 708
q27 0 43.5 9t38.5 33q8 8 21 5.5t13 -17.5v-76q0 -14 -4.5 -25.5t-12.5 -19.5q-20 -21 -43.5 -31t-57.5 -10q-31 0 -51 6.5t-36.5 15t-33.5 15t-42 6.5q-27 0 -43.5 -9t-38.5 -33q-8 -8 -21 -5.5t-13 17.5v76q0 14 4.5 25.5t12.5 19.5q20 21 43.5 31t57.5 10q31 0 51 -6.5
t36.5 -15t33.5 -15t42 -6.5z" />
    <glyph glyph-name="ograve" unicode="&#xf2;" horiz-adv-x="947" 
d="M210 0q-36 0 -65 11.5t-50 32t-32.5 50t-11.5 65.5v202q0 36 11.5 65.5t32.5 50t50 32t65 11.5h527q36 0 65 -11.5t50 -32t32.5 -50t11.5 -65.5v-202q0 -36 -11.5 -65.5t-32.5 -50t-50 -32t-65 -11.5h-527zM268 373q-23 0 -36.5 -13.5t-13.5 -36.5v-126q0 -23 13.5 -36.5
t36.5 -13.5h411q23 0 36.5 13.5t13.5 36.5v126q0 23 -13.5 36.5t-36.5 13.5h-411zM313 724q-8 10 -4 20.5t19 10.5h122q17 0 25.5 -5.5t16.5 -17.5l83 -128q6 -9 1 -20.5t-19 -11.5h-96q-17 0 -26 4.5t-19 17.5z" />
    <glyph glyph-name="oacute" unicode="&#xf3;" horiz-adv-x="947" 
d="M210 0q-36 0 -65 11.5t-50 32t-32.5 50t-11.5 65.5v202q0 36 11.5 65.5t32.5 50t50 32t65 11.5h527q36 0 65 -11.5t50 -32t32.5 -50t11.5 -65.5v-202q0 -36 -11.5 -65.5t-32.5 -50t-50 -32t-65 -11.5h-527zM268 373q-23 0 -36.5 -13.5t-13.5 -36.5v-126q0 -23 13.5 -36.5
t36.5 -13.5h411q23 0 36.5 13.5t13.5 36.5v126q0 23 -13.5 36.5t-36.5 13.5h-411zM530 594q-10 -13 -19 -17.5t-26 -4.5h-96q-14 0 -19 11.5t1 20.5l83 128q8 12 16.5 17.5t25.5 5.5h122q15 0 19 -10.5t-4 -20.5z" />
    <glyph glyph-name="ocircumflex" unicode="&#xf4;" horiz-adv-x="947" 
d="M210 0q-36 0 -65 11.5t-50 32t-32.5 50t-11.5 65.5v202q0 36 11.5 65.5t32.5 50t50 32t65 11.5h527q36 0 65 -11.5t50 -32t32.5 -50t11.5 -65.5v-202q0 -36 -11.5 -65.5t-32.5 -50t-50 -32t-65 -11.5h-527zM268 373q-23 0 -36.5 -13.5t-13.5 -36.5v-126q0 -23 13.5 -36.5
t36.5 -13.5h411q23 0 36.5 13.5t13.5 36.5v126q0 23 -13.5 36.5t-36.5 13.5h-411zM473 669l-60 -75q-10 -13 -19 -17.5t-26 -4.5h-94q-14 0 -17.5 11.5t3.5 20.5l98 128q9 12 18.5 17.5t26.5 5.5h140q17 0 26.5 -5.5t18.5 -17.5l98 -128q7 -9 3.5 -20.5t-17.5 -11.5h-94
q-17 0 -26 4.5t-19 17.5z" />
    <glyph glyph-name="otilde" unicode="&#xf5;" horiz-adv-x="947" 
d="M210 0q-36 0 -65 11.5t-50 32t-32.5 50t-11.5 65.5v202q0 36 11.5 65.5t32.5 50t50 32t65 11.5h527q36 0 65 -11.5t50 -32t32.5 -50t11.5 -65.5v-202q0 -36 -11.5 -65.5t-32.5 -50t-50 -32t-65 -11.5h-527zM268 373q-23 0 -36.5 -13.5t-13.5 -36.5v-126q0 -23 13.5 -36.5
t36.5 -13.5h411q23 0 36.5 13.5t13.5 36.5v126q0 23 -13.5 36.5t-36.5 13.5h-411zM556 708q27 0 43.5 9t38.5 33q8 8 21 5.5t13 -17.5v-76q0 -14 -4.5 -25.5t-12.5 -19.5q-20 -21 -43.5 -31t-57.5 -10q-31 0 -51 6.5t-36.5 15t-33.5 15t-42 6.5q-27 0 -43.5 -9t-38.5 -33
q-8 -8 -21 -5.5t-13 17.5v76q0 14 4.5 25.5t12.5 19.5q20 21 43.5 31t57.5 10q31 0 51 -6.5t36.5 -15t33.5 -15t42 -6.5z" />
    <glyph glyph-name="odieresis" unicode="&#xf6;" horiz-adv-x="947" 
d="M210 0q-36 0 -65 11.5t-50 32t-32.5 50t-11.5 65.5v202q0 36 11.5 65.5t32.5 50t50 32t65 11.5h527q36 0 65 -11.5t50 -32t32.5 -50t11.5 -65.5v-202q0 -36 -11.5 -65.5t-32.5 -50t-50 -32t-65 -11.5h-527zM268 373q-23 0 -36.5 -13.5t-13.5 -36.5v-126q0 -23 13.5 -36.5
t36.5 -13.5h411q23 0 36.5 13.5t13.5 36.5v126q0 23 -13.5 36.5t-36.5 13.5h-411zM557 577q-30 0 -30 32v82q0 31 30 31h122q30 0 30 -31v-82q0 -32 -30 -32h-122zM267 577q-30 0 -30 32v82q0 31 30 31h122q30 0 30 -31v-82q0 -32 -30 -32h-122z" />
    <glyph glyph-name="divide" unicode="&#xf7;" horiz-adv-x="736" 
d="M73 273q-40 0 -40 40v74q0 40 40 40h590q40 0 40 -40v-74q0 -40 -40 -40h-590zM304 19q-33 0 -33 34v105q0 33 33 33h128q33 0 33 -33v-105q0 -34 -33 -34h-128zM304 509q-33 0 -33 33v105q0 34 33 34h128q33 0 33 -34v-105q0 -33 -33 -33h-128z" />
    <glyph glyph-name="oslash" unicode="&#xf8;" horiz-adv-x="947" 
d="M846 482q50 -44 50 -121v-202q0 -36 -11.5 -65.5t-32.5 -50t-50 -32t-65 -11.5h-466l-12 -10q-17 -15 -34 -22.5t-40 -7.5h-113q-9 0 -14.5 5t-7 11.5t1 14t8.5 12.5l41 34q-24 21 -37 52t-13 70v202q0 36 11.5 65.5t32.5 50t50 32t65 11.5h466l12 10q17 15 34 22.5
t40 7.5h113q9 0 14 -5t6.5 -11.5t-0.5 -14t-8 -12.5zM729 323q0 30 -22 43l-261 -219h233q23 0 36.5 13.5t13.5 36.5v126zM268 373q-23 0 -36.5 -13.5t-13.5 -36.5v-126q0 -30 21 -43l261 219h-232z" />
    <glyph glyph-name="ugrave" unicode="&#xf9;" horiz-adv-x="937" 
d="M223 197q0 -23 13.5 -36.5t36.5 -13.5h391q23 0 36.5 13.5t13.5 36.5v286q0 37 37 37h93q37 0 37 -37v-324q0 -36 -11.5 -65.5t-32.5 -50t-50 -32t-65 -11.5h-507q-36 0 -65 11.5t-50 32t-32.5 50t-11.5 65.5v324q0 37 37 37h93q37 0 37 -37v-286zM308 724q-8 10 -4 20.5
t19 10.5h122q17 0 25.5 -5.5t16.5 -17.5l83 -128q6 -9 1 -20.5t-19 -11.5h-96q-17 0 -26 4.5t-19 17.5z" />
    <glyph glyph-name="uacute" unicode="&#xfa;" horiz-adv-x="937" 
d="M223 197q0 -23 13.5 -36.5t36.5 -13.5h391q23 0 36.5 13.5t13.5 36.5v286q0 37 37 37h93q37 0 37 -37v-324q0 -36 -11.5 -65.5t-32.5 -50t-50 -32t-65 -11.5h-507q-36 0 -65 11.5t-50 32t-32.5 50t-11.5 65.5v324q0 37 37 37h93q37 0 37 -37v-286zM525 594
q-10 -13 -19 -17.5t-26 -4.5h-96q-14 0 -19 11.5t1 20.5l83 128q8 12 16.5 17.5t25.5 5.5h122q15 0 19 -10.5t-4 -20.5z" />
    <glyph glyph-name="ucircumflex" unicode="&#xfb;" horiz-adv-x="937" 
d="M223 197q0 -23 13.5 -36.5t36.5 -13.5h391q23 0 36.5 13.5t13.5 36.5v286q0 37 37 37h93q37 0 37 -37v-324q0 -36 -11.5 -65.5t-32.5 -50t-50 -32t-65 -11.5h-507q-36 0 -65 11.5t-50 32t-32.5 50t-11.5 65.5v324q0 37 37 37h93q37 0 37 -37v-286zM468 669l-60 -75
q-10 -13 -19 -17.5t-26 -4.5h-94q-14 0 -17.5 11.5t3.5 20.5l98 128q9 12 18.5 17.5t26.5 5.5h140q17 0 26.5 -5.5t18.5 -17.5l98 -128q7 -9 3.5 -20.5t-17.5 -11.5h-94q-17 0 -26 4.5t-19 17.5z" />
    <glyph glyph-name="udieresis" unicode="&#xfc;" horiz-adv-x="937" 
d="M223 197q0 -23 13.5 -36.5t36.5 -13.5h391q23 0 36.5 13.5t13.5 36.5v286q0 37 37 37h93q37 0 37 -37v-324q0 -36 -11.5 -65.5t-32.5 -50t-50 -32t-65 -11.5h-507q-36 0 -65 11.5t-50 32t-32.5 50t-11.5 65.5v324q0 37 37 37h93q37 0 37 -37v-286zM552 577q-30 0 -30 32
v82q0 31 30 31h122q30 0 30 -31v-82q0 -32 -30 -32h-122zM262 577q-30 0 -30 32v82q0 31 30 31h122q30 0 30 -31v-82q0 -32 -30 -32h-122z" />
    <glyph glyph-name="yacute" unicode="&#xfd;" horiz-adv-x="942" 
d="M881 -38q0 -81 -47.5 -128t-127.5 -47h-578q-37 0 -37 37v66q0 37 37 37h531q55 0 55 56v73q-20 -26 -51 -41t-76 -15h-372q-36 0 -65 11.5t-50 32t-32.5 50t-11.5 65.5v324q0 37 37 37h93q37 0 37 -37v-286q0 -23 13.5 -36.5t36.5 -13.5h391q23 0 36.5 13.5t13.5 36.5
v286q0 37 37 37h93q37 0 37 -37v-521zM531 594q-10 -13 -19 -17.5t-26 -4.5h-96q-14 0 -19 11.5t1 20.5l83 128q8 12 16.5 17.5t25.5 5.5h122q15 0 19 -10.5t-4 -20.5z" />
    <glyph glyph-name="thorn" unicode="&#xfe;" horiz-adv-x="957" 
d="M747 520q36 0 65 -11.5t50 -32t32.5 -50t11.5 -65.5v-202q0 -36 -11.5 -65.5t-32.5 -50t-50 -32t-65 -11.5h-392q-45 0 -76.5 15t-50.5 41v-232q0 -37 -37 -37h-93q-37 0 -37 37v877q0 37 37 37h93q37 0 37 -37v-238q19 26 50.5 41.5t76.5 15.5h392zM278 373
q-23 0 -36.5 -13.5t-13.5 -36.5v-126q0 -23 13.5 -36.5t36.5 -13.5h411q23 0 36.5 13.5t13.5 36.5v126q0 23 -13.5 36.5t-36.5 13.5h-411z" />
    <glyph glyph-name="ydieresis" unicode="&#xff;" horiz-adv-x="942" 
d="M881 -38q0 -81 -47.5 -128t-127.5 -47h-578q-37 0 -37 37v66q0 37 37 37h531q55 0 55 56v73q-20 -26 -51 -41t-76 -15h-372q-36 0 -65 11.5t-50 32t-32.5 50t-11.5 65.5v324q0 37 37 37h93q37 0 37 -37v-286q0 -23 13.5 -36.5t36.5 -13.5h391q23 0 36.5 13.5t13.5 36.5
v286q0 37 37 37h93q37 0 37 -37v-521zM558 577q-30 0 -30 32v82q0 31 30 31h122q30 0 30 -31v-82q0 -32 -30 -32h-122zM268 577q-30 0 -30 32v82q0 31 30 31h122q30 0 30 -31v-82q0 -32 -30 -32h-122z" />
    <glyph glyph-name="dotlessi" unicode="&#x131;" horiz-adv-x="349" 
d="M223 173q0 -11 6 -18.5t20 -7.5h42q37 0 37 -37v-73q0 -37 -37 -37h-87q-72 0 -110 38.5t-38 110.5v334q0 37 37 37h93q37 0 37 -37v-310v0z" />
    <glyph glyph-name="OE" unicode="&#x152;" horiz-adv-x="2033" 
d="M1227 0q-127 0 -178 86q-26 -42 -70.5 -64t-107.5 -22h-611q-101 0 -154.5 54.5t-53.5 154.5v282q0 100 53.5 154.5t154.5 54.5h611q63 0 107.5 -22t70.5 -64q25 42 70 64t108 22h727q42 0 42 -42v-80q0 -42 -42 -42h-738q-74 0 -74 -74v-35h712q42 0 42 -42v-70
q0 -42 -42 -42h-712v-35q0 -74 74 -74h738q42 0 42 -42v-80q0 -42 -42 -42h-727zM882 164q35 0 54.5 19t19.5 55v224q0 36 -19.5 55t-54.5 19h-570q-74 0 -74 -74v-224q0 -74 74 -74h570z" />
    <glyph glyph-name="oe" unicode="&#x153;" horiz-adv-x="1556" 
d="M210 0q-36 0 -65 11.5t-50 32t-32.5 50t-11.5 65.5v202q0 36 11.5 65.5t32.5 50t50 32t65 11.5h457q44 0 75.5 -17t49.5 -47q19 30 50.5 47t75.5 17h457q72 0 110.5 -38.5t38.5 -110.5v-14q0 -72 -38.5 -110.5t-110.5 -38.5h-499v-11q0 -23 13.5 -36.5t36.5 -13.5h536
q37 0 37 -37v-73q0 -37 -37 -37h-544q-44 0 -75.5 16.5t-50.5 47.5q-37 -64 -125 -64h-457zM659 147q23 0 36.5 13.5t13.5 36.5v126q0 23 -13.5 36.5t-36.5 13.5h-391q-23 0 -36.5 -13.5t-13.5 -36.5v-126q0 -23 13.5 -36.5t36.5 -13.5h391zM876 312h455q14 0 20 7.5t6 18.5
v9q0 11 -6 18.5t-20 7.5h-405q-23 0 -36.5 -13.5t-13.5 -36.5v-11z" />
    <glyph glyph-name="Scaron" unicode="&#x160;" horiz-adv-x="1168" 
d="M279 536q-58 0 -58 -50v-9q0 -50 58 -50h638q50 0 90.5 -9.5t69 -30.5t43.5 -55.5t15 -83.5v-69q0 -50 -15 -84t-43.5 -55t-69 -30.5t-90.5 -9.5h-825q-42 0 -42 42v80q0 42 42 42h799q58 0 58 50v9q0 50 -58 50h-638q-50 0 -90.5 9.5t-69 30.5t-43.5 55t-15 84v69
q0 49 15 83.5t43.5 55.5t69 30.5t90.5 9.5h815q42 0 42 -42v-80q0 -42 -42 -42h-789zM584 829l60 76q10 13 19 17.5t26 4.5h94q14 0 17.5 -11.5t-3.5 -20.5l-98 -128q-9 -12 -18.5 -17.5t-26.5 -5.5h-140q-17 0 -26.5 5.5t-18.5 17.5l-98 128q-7 9 -3.5 20.5t17.5 11.5h94
q17 0 26 -4.5t19 -17.5z" />
    <glyph glyph-name="scaron" unicode="&#x161;" horiz-adv-x="889" 
d="M84 0q-37 0 -37 37v73q0 37 37 37h580q14 0 20 7.5t6 18.5v9q0 11 -6 18.5t-20 7.5h-483q-72 0 -110.5 38.5t-38.5 110.5v14q0 72 38.5 110.5t110.5 38.5h614q37 0 37 -37v-73q0 -37 -37 -37h-570q-14 0 -20 -7.5t-6 -18.5v-9q0 -11 6 -18.5t20 -7.5h483
q72 0 110.5 -38.5t38.5 -110.5v-14q0 -72 -38.5 -110.5t-110.5 -38.5h-624zM444 657l60 76q10 13 19 17.5t26 4.5h94q14 0 17.5 -11.5t-3.5 -20.5l-98 -128q-9 -12 -18.5 -17.5t-26.5 -5.5h-140q-17 0 -26.5 5.5t-18.5 17.5l-98 128q-7 9 -3.5 20.5t17.5 11.5h94
q17 0 26 -4.5t19 -17.5z" />
    <glyph glyph-name="Ydieresis" unicode="&#x178;" horiz-adv-x="1208" 
d="M215 435q0 -74 74 -74h630q74 0 74 74v223q0 42 42 42h102q42 0 42 -42v-252q0 -100 -53.5 -154.5t-154.5 -54.5h-274v-155q0 -42 -42 -42h-102q-42 0 -42 42v155h-274q-101 0 -154.5 54.5t-53.5 154.5v252q0 42 42 42h102q42 0 42 -42v-223zM688 749q-30 0 -30 32v82
q0 31 30 31h122q30 0 30 -31v-82q0 -32 -30 -32h-122zM398 749q-30 0 -30 32v82q0 31 30 31h122q30 0 30 -31v-82q0 -32 -30 -32h-122z" />
    <glyph glyph-name="Zcaron" unicode="&#x17d;" horiz-adv-x="1142" 
d="M78 0q-42 0 -42 42v61q0 20 8 32.5t22 20.5l685 380h-658q-42 0 -42 42v80q0 42 42 42h971q42 0 42 -42v-61q0 -20 -8 -32.5t-22 -20.5l-685 -380h673q42 0 42 -42v-80q0 -42 -42 -42h-986zM571 829l60 76q10 13 19 17.5t26 4.5h94q14 0 17.5 -11.5t-3.5 -20.5l-98 -128
q-9 -12 -18.5 -17.5t-26.5 -5.5h-140q-17 0 -26.5 5.5t-18.5 17.5l-98 128q-7 9 -3.5 20.5t17.5 11.5h94q17 0 26 -4.5t19 -17.5z" />
    <glyph glyph-name="zcaron" unicode="&#x17e;" horiz-adv-x="870" 
d="M798 520q37 0 37 -37v-46q0 -16 -6 -28t-21 -20l-451 -242h441q37 0 37 -37v-73q0 -37 -37 -37h-726q-37 0 -37 37v46q0 16 6 28t21 20l451 242h-426q-37 0 -37 37v73q0 37 37 37h711zM435 657l60 76q10 13 19 17.5t26 4.5h94q14 0 17.5 -11.5t-3.5 -20.5l-98 -128
q-9 -12 -18.5 -17.5t-26.5 -5.5h-140q-17 0 -26.5 5.5t-18.5 17.5l-98 128q-7 9 -3.5 20.5t17.5 11.5h94q17 0 26 -4.5t19 -17.5z" />
    <glyph glyph-name="florin" unicode="&#x192;" horiz-adv-x="710" 
d="M68 373q-37 0 -37 37v73q0 37 37 37h142l8 59q4 36 19.5 65.5t39 50t54 32t66.5 11.5h247q37 0 37 -37v-73q0 -37 -37 -37h-207q-23 0 -38 -13.5t-18 -36.5l-3 -21h266q37 0 37 -37v-73q0 -37 -37 -37h-284l-40 -327q-5 -36 -20 -65.5t-38.5 -50t-54 -32t-66.5 -11.5h-73
q-37 0 -37 37v73q0 37 37 37h33q23 0 38 13.5t18 36.5l35 289h-124v0z" />
    <glyph glyph-name="uni0237" unicode="&#x237;" horiz-adv-x="289" 
d="M61 483q0 37 37 37h93q37 0 37 -37v-537q0 -72 -43.5 -115.5t-115.5 -43.5h-61q-37 0 -37 37v66q0 37 37 37h8q45 0 45 44v512z" />
    <glyph glyph-name="circumflex" unicode="&#x2c6;" horiz-adv-x="500" 
d="M250 669l-60 -75q-10 -13 -19 -17.5t-26 -4.5h-94q-14 0 -17.5 11.5t3.5 20.5l98 128q9 12 18.5 17.5t26.5 5.5h140q17 0 26.5 -5.5t18.5 -17.5l98 -128q7 -9 3.5 -20.5t-17.5 -11.5h-94q-17 0 -26 4.5t-19 17.5z" />
    <glyph glyph-name="tilde" unicode="&#x2dc;" horiz-adv-x="500" 
d="M332 708q27 0 43.5 9t38.5 33q8 8 21 5.5t13 -17.5v-76q0 -14 -4.5 -25.5t-12.5 -19.5q-20 -21 -43.5 -31t-57.5 -10q-31 0 -51 6.5t-36.5 15t-33.5 15t-42 6.5q-27 0 -43.5 -9t-38.5 -33q-8 -8 -21 -5.5t-13 17.5v76q0 14 4.5 25.5t12.5 19.5q20 21 43.5 31t57.5 10
q31 0 51 -6.5t36.5 -15t33.5 -15t42 -6.5z" />
    <glyph glyph-name="endash" unicode="&#x2013;" horiz-adv-x="500" 
d="M0 355q0 36 36 36h428q36 0 36 -36v-75q0 -36 -36 -36h-428q-36 0 -36 36v75z" />
    <glyph glyph-name="emdash" unicode="&#x2014;" horiz-adv-x="1000" 
d="M125 355q0 36 36 36h678q36 0 36 -36v-75q0 -36 -36 -36h-678q-36 0 -36 36v75z" />
    <glyph glyph-name="quoteleft" unicode="&#x2018;" horiz-adv-x="312" 
d="M140 674q14 26 44 26h53q14 0 19 -10.5t-2 -22.5l-77 -145h41q40 0 40 -40v-85q0 -40 -40 -40h-124q-40 0 -40 40v90q0 17 3.5 32.5t13.5 32.5z" />
    <glyph glyph-name="quoteright" unicode="&#x2019;" horiz-adv-x="312" 
d="M172 383q-14 -26 -44 -26h-53q-14 0 -19 10.5t2 22.5l77 145h-41q-40 0 -40 40v85q0 40 40 40h124q40 0 40 -40v-90q0 -17 -3.5 -32.5t-13.5 -32.5z" />
    <glyph glyph-name="quotesinglbase" unicode="&#x201a;" horiz-adv-x="312" 
d="M172 -152q-14 -26 -44 -26h-53q-14 0 -19 10.5t2 22.5l77 145h-41q-40 0 -40 40v85q0 40 40 40h124q40 0 40 -40v-90q0 -17 -3.5 -32.5t-13.5 -32.5z" />
    <glyph glyph-name="quotedblleft" unicode="&#x201c;" horiz-adv-x="584" 
d="M412 674q14 26 44 26h53q14 0 19 -10.5t-2 -22.5l-77 -145h41q40 0 40 -40v-85q0 -40 -40 -40h-124q-40 0 -40 40v90q0 17 3.5 32.5t13.5 32.5zM140 674q14 26 44 26h53q14 0 19 -10.5t-2 -22.5l-77 -145h41q40 0 40 -40v-85q0 -40 -40 -40h-124q-40 0 -40 40v90
q0 17 3.5 32.5t13.5 32.5z" />
    <glyph glyph-name="quotedblright" unicode="&#x201d;" horiz-adv-x="584" 
d="M444 383q-14 -26 -44 -26h-53q-14 0 -19 10.5t2 22.5l77 145h-41q-40 0 -40 40v85q0 40 40 40h124q40 0 40 -40v-90q0 -17 -3.5 -32.5t-13.5 -32.5zM172 383q-14 -26 -44 -26h-53q-14 0 -19 10.5t2 22.5l77 145h-41q-40 0 -40 40v85q0 40 40 40h124q40 0 40 -40v-90
q0 -17 -3.5 -32.5t-13.5 -32.5z" />
    <glyph glyph-name="quotedblbase" unicode="&#x201e;" horiz-adv-x="584" 
d="M444 -152q-14 -26 -44 -26h-53q-14 0 -19 10.5t2 22.5l77 145h-41q-40 0 -40 40v85q0 40 40 40h124q40 0 40 -40v-90q0 -17 -3.5 -32.5t-13.5 -32.5zM172 -152q-14 -26 -44 -26h-53q-14 0 -19 10.5t2 22.5l77 145h-41q-40 0 -40 40v85q0 40 40 40h124q40 0 40 -40v-90
q0 -17 -3.5 -32.5t-13.5 -32.5z" />
    <glyph glyph-name="dagger" unicode="&#x2020;" horiz-adv-x="646" 
d="M269 385l-197 -41q-17 -4 -27 4.5t-10 25.5v135q0 17 10 26t27 5l194 -41l-41 162q-5 17 3.5 28t25.5 11h138q17 0 25.5 -11t3.5 -28l-41 -162l194 41q17 4 27 -5t10 -26v-135q0 -17 -10 -25.5t-27 -4.5l-198 41l40 -134q6 -20 6 -34.5t-4 -39.5l-50 -327q-3 -22 -27 -22
h-35q-25 0 -28 22l-50 327q-4 25 -4 39.5t6 34.5z" />
    <glyph glyph-name="daggerdbl" unicode="&#x2021;" horiz-adv-x="646" 
d="M380 143l194 41q17 4 27 -4.5t10 -25.5v-135q0 -17 -10 -26t-27 -5l-194 41l41 -162q5 -17 -3.5 -28t-25.5 -11h-138q-17 0 -25.5 11t-3.5 28l41 162l-194 -41q-17 -4 -27 5t-10 26v135q0 17 10 25.5t27 4.5l194 -41l-30 84q-13 38 0 74l30 84l-194 -41q-17 -4 -27 4.5
t-10 25.5v135q0 17 10 26t27 5l194 -41l-41 162q-5 17 3.5 28t25.5 11h138q17 0 25.5 -11t3.5 -28l-41 -162l194 41q17 4 27 -5t10 -26v-135q0 -17 -10 -25.5t-27 -4.5l-194 41l30 -84q13 -36 0 -74z" />
    <glyph glyph-name="bullet" unicode="&#x2022;" horiz-adv-x="500" 
d="M38 318q0 44 16.5 82.5t45 67.5t67.5 45.5t83 16.5t82.5 -16.5t67.5 -45.5t45.5 -67.5t16.5 -82.5t-16.5 -83t-45.5 -67.5t-67.5 -45t-82.5 -16.5t-83 16.5t-67.5 45t-45 67.5t-16.5 83z" />
    <glyph glyph-name="ellipsis" unicode="&#x2026;" horiz-adv-x="1000" 
d="M766 0q-40 0 -40 40v85q0 40 40 40h124q40 0 40 -40v-85q0 -40 -40 -40h-124zM438 0q-40 0 -40 40v85q0 40 40 40h124q40 0 40 -40v-85q0 -40 -40 -40h-124zM110 0q-40 0 -40 40v85q0 40 40 40h124q40 0 40 -40v-85q0 -40 -40 -40h-124z" />
    <glyph glyph-name="perthousand" unicode="&#x2030;" horiz-adv-x="1869" 
d="M1477 0q-62 0 -95 33t-33 95v192q0 62 33 95t95 33h227q62 0 95 -33t33 -95v-192q0 -62 -33 -95t-95 -33h-227zM1523 330q-39 0 -39 -39v-134q0 -39 39 -39h135q39 0 39 39v134q0 39 -39 39h-135zM165 252q-62 0 -95 33t-33 95v192q0 62 33 95t95 33h227q62 0 95 -33
t33 -95v-192q0 -62 -33 -95t-95 -33h-227zM927 0q-62 0 -95 33t-33 95v192q0 62 33 95t95 33h227q62 0 95 -33t33 -95v-192q0 -62 -33 -95t-95 -33h-227zM973 330q-39 0 -39 -39v-134q0 -39 39 -39h135q39 0 39 39v134q0 18 -10 28.5t-29 10.5h-135zM211 582q-39 0 -39 -39
v-134q0 -18 10 -28.5t29 -10.5h135q39 0 39 39v134q0 18 -9.5 28.5t-29.5 10.5h-135zM510 28q-11 -16 -23 -22t-34 -6h-67q-18 0 -22 13t5 26l440 633q11 16 23 22t34 6h66q19 0 23 -13t-5 -26z" />
    <glyph glyph-name="guilsinglleft" unicode="&#x2039;" horiz-adv-x="408" 
d="M24 260q0 14 14 30l153 175q12 14 24.5 19.5t34.5 5.5h101q19 0 24.5 -14.5t-4.5 -25.5l-168 -190l168 -190q10 -11 4.5 -25.5t-24.5 -14.5h-101q-22 0 -34.5 5.5t-24.5 19.5l-153 175q-14 16 -14 30z" />
    <glyph glyph-name="guilsinglright" unicode="&#x203a;" horiz-adv-x="408" 
d="M384 260q0 -14 -14 -30l-153 -175q-12 -14 -24.5 -19.5t-34.5 -5.5h-101q-10 0 -16 4t-9 10t-1.5 13t6.5 13l168 190l-168 190q-5 6 -6.5 13t1.5 13t9 10t16 4h101q22 0 34.5 -5.5t24.5 -19.5l153 -175q14 -16 14 -30z" />
    <glyph glyph-name="Euro" unicode="&#x20ac;" horiz-adv-x="1132" 
d="M277 383v-66h491q28 0 28 -29v-34q0 -29 -28 -29h-491q0 -33 19 -51.5t54 -18.5h706q40 0 40 -40v-75q0 -40 -40 -40h-755q-96 0 -148 52t-52 148v25h-56q-29 0 -29 29v34q0 29 29 29h56v66h-56q-29 0 -29 29v34q0 29 29 29h56v25q0 97 51.5 148.5t148.5 51.5h755
q40 0 40 -40v-75q0 -40 -40 -40h-706q-34 0 -53.5 -19t-19.5 -51h631q28 0 28 -29v-34q0 -29 -28 -29h-631z" />
    <glyph glyph-name="trademark" unicode="&#x2122;" horiz-adv-x="1394" 
d="M594 568q0 63 34 97.5t97 34.5h128q81 0 112 -59q29 59 113 59h127q64 0 98 -34.5t34 -97.5v-227q0 -23 -23 -23h-76q-22 0 -22 23v199q0 23 -15 38t-40 15h-81q-24 0 -39 -15t-15 -38v-199q0 -23 -23 -23h-76q-22 0 -22 23v199q0 23 -15.5 38t-39.5 15h-91
q-24 0 -39 -15t-15 -38v-199q0 -23 -23 -23h-66q-22 0 -22 23v227zM511 700q23 0 23 -23v-61q0 -23 -23 -23h-174v-252q0 -23 -23 -23h-75q-23 0 -23 23v252h-174q-23 0 -23 23v61q0 23 23 23h469z" />
    </font>
</defs>
</svg>
